<svg width="2254" height="860" viewBox="0 0 2254 860" fill="none" xmlns="http://www.w3.org/2000/svg">
<path fill-rule="evenodd" clip-rule="evenodd" d="M0 0C751.333 0 1502.67 0 2254 0C2254 286.667 2254 573.333 2254 860C1502.67 860 751.333 860 0 860C0 573.333 0 286.667 0 0Z" fill="#FEFEFE"/>
<path fill-rule="evenodd" clip-rule="evenodd" d="M482 26.0001C438.667 26.0001 395.333 26.0001 352 26.0001C352 27.0001 352 28.0001 352 29.0001C351.066 27.9301 350.732 26.6001 351 25.0001C394.837 24.6701 438.503 25.0001 482 26.0001Z" fill="#DEDEDE"/>
<path fill-rule="evenodd" clip-rule="evenodd" d="M482 26.0001C481.848 29.6401 480.182 32.31 477 34C478.457 31.87 479.457 29.54 480 27C437.667 27 395.333 27 353 27C353.204 29.19 353.87 31.19 355 33C353.238 32.24 352.238 30.9001 352 29.0001C352 28.0001 352 27.0001 352 26.0001C395.333 26.0001 438.667 26.0001 482 26.0001Z" fill="#9A9A9A"/>
<path fill-rule="evenodd" clip-rule="evenodd" d="M477 34C477.172 34.99 476.838 35.66 476 36C473.912 37.84 472.579 40.17 472 43C468.936 46.46 466.936 50.46 466 55C465 55.33 464.333 56 464 57C462.25 58.16 461.25 59.83 461 62C456.774 69.94 452.44 77.94 448 86C447.096 86.71 446.763 87.71 447 89C451.333 89 455.667 89 460 89C468.73 91.18 477.73 92.18 487 92C492.659 94.28 498.659 95.28 505 95C509.63 97.26 514.63 98.26 520 98C523.58 100.23 527.58 101.23 532 101C534.65 102.79 537.65 103.79 541 104C543 104.33 545 104.67 547 105C547.38 106.43 548.38 107.26 550 107.5C552.31 108 554.64 108.16 557 108C563.76 110.48 570.43 113.14 577 116C583.07 119.11 589.4 121.78 596 124C647.33 146.46 690.17 180.13 724.5 225C727.13 229.8 729.96 234.46 733 239C733.5 243.36 735.5 246.69 739 249C744.57 256.6 748.9 264.94 752 274C752.3 278.29 753.96 281.96 757 285C757 285.33 757 285.67 757 286C756.88 290.96 758.54 294.96 762 298C761.91 300.65 762.58 302.99 764 305C764.19 308.36 765.19 311.36 767 314C767.21 319.72 768.55 325.05 771 330C770.79 333 771.46 335.66 773 338C773.92 343.55 774.92 349.22 776 355C776 357.33 776 359.67 776 362C747.33 362 718.67 362 690 362C503.5 361.67 317.166 362 131 363C122.483 362.67 114.15 363.01 106 364C103.044 375.83 101.044 387.83 100 400C98.3502 405.75 97.6842 411.75 98.0002 418C97.0182 421.46 96.6852 425.13 97.0002 429C95.6682 437.47 95.0022 446.31 95.0002 455.5C95.0022 464.69 95.6682 473.53 97.0002 482C97.9432 497.1 99.6092 512.1 102 527C102.693 532.18 103.693 537.18 105 542C110.48 568.79 119.48 594.12 132 618C132.863 621.42 134.03 624.76 135.5 628C136.171 628.75 137.004 629.09 138 629C142.984 636.66 147.984 644.32 153 652C153.788 655.31 155.288 658.31 157.5 661C158.629 662.64 160.129 663.64 162 664C182.771 689.94 207.438 711.44 236 728.5C238.333 729.17 240.667 729.17 243 728.5C252.114 725.11 261.114 721.44 270 717.5C279.978 712.18 289.645 706.34 299 700C304.725 696.45 310.059 692.29 315 687.5C318.939 684.07 322.272 680.24 325 676C334.401 667.44 342.067 657.77 348 647C350.664 645.02 352.331 642.35 353 639C356.18 637.23 358.18 634.56 359 631C359.297 627.74 360.63 625.07 363 623C365.593 619.95 367.259 616.28 368 612C371.439 605.88 374.606 599.55 377.5 593C378.649 590.11 379.149 587.11 379 584C378.732 582.4 379.066 581.07 380 580C382.455 575.77 383.789 571.1 384 566C386.225 558.72 387.892 551.22 389 543.5C518.67 543.17 648.33 542.67 778 542C778 543.33 778 544.67 778 546C776.14 555.08 774.47 564.08 773 573C771.01 577 770.01 581.33 770 586C768.84 589.26 767.84 592.59 767 596C762.69 602.6 760.36 609.93 760 618C757.92 620.76 756.08 623.76 754.5 627C754 628.97 753.84 630.97 754 633C753.24 635.5 752.24 637.84 751 640C746.57 643.52 744.24 648.19 744 654C741.41 655.51 740.07 657.84 740 661C708.77 713.05 666.44 753.05 613 781C610.41 780.96 608.41 781.96 607 784C604.28 783.89 602.28 784.89 601 787C600.67 787 600.33 787 600 787C597.53 787.25 595.53 788.25 594 790C591.15 790.05 588.82 791.05 587 793C586.01 792.83 585.34 793.16 585 794C579.71 794.18 575.05 795.85 571 799C568.01 799.4 565.35 800.4 563 802C559.93 803.8 556.59 804.8 553 805C549.18 804.71 545.84 805.71 543 808C541.93 808.93 540.6 809.27 539 809C531.96 809.7 525.3 811.36 519 814C511.22 813.58 503.88 814.92 497 818C495.235 818.96 493.235 819.29 491 819C486.13 819.19 481.464 819.86 477 821C465.086 820.81 453.42 821.81 442 824C421.667 825.33 401.333 825.33 381 824C365.457 822.45 349.79 820.78 334 819C333 819 332 819 331 819C322.891 816.81 314.558 815.14 306 814C301.7 813.78 297.7 812.78 294 811C291.901 809.89 289.567 809.22 287 809C285.401 809.27 284.068 808.93 283 808C280.308 805.36 276.975 804.36 273 805C270.985 803.58 268.652 802.91 266 803C257.001 800.26 248.334 796.93 240 793C236.987 789.17 232.987 787.5 228 788C224.366 783.78 219.699 781.44 214 781C211.619 776.75 207.953 774.75 203 775C186.112 766.06 170.445 755.39 156 743C154.915 740.91 153.249 739.58 151 739C149.111 737.9 147.445 736.56 146 735C144.974 732.13 143.307 729.63 141 727.5C136.865 724.86 133.199 721.7 130 718C129.083 717.37 128.083 717.04 127 717C112.458 701.14 99.1252 684.48 87.0002 667C86.9082 662.82 85.2412 659.48 82.0002 657C75.2212 647.7 69.5542 637.7 65.0002 627C64.7692 620.96 62.4362 615.96 58.0002 612C58.0002 611.67 58.0002 611.33 58.0002 611C57.9892 608.95 57.6562 606.95 57.0002 605C55.3422 601.44 53.6752 598.11 52.0002 595C47.7782 585.46 44.7782 575.46 43.0002 565C42.7792 562.43 42.1122 560.1 41.0002 558C40.9772 552.63 40.4772 547.29 39.5002 542C37.9152 534.32 36.2482 526.65 34.5002 519C30.9522 481.4 30.1192 443.73 32.0002 406C33.5312 401.25 34.1982 396.25 34.0002 391C33.6942 388.11 34.0272 385.45 35.0002 383C39.2532 371.2 41.9202 358.87 43.0002 346C43.4202 340.97 44.7542 336.3 47.0002 332C50.1952 327.24 51.8612 321.91 52.0002 316C52.6292 313.1 53.6292 310.44 55.0002 308C57.1192 306.51 58.6192 304.51 59.5002 302C60.0332 298.57 60.8672 295.24 62.0002 292C86.2592 237.23 122.593 192.06 171 156.5C180.676 151 190.01 145 199 138.5C206.332 135.5 213.332 132 220 128C226.236 125.75 232.569 123.59 239 121.5C242.099 120.22 244.766 118.39 247 116C252.327 114.9 257.66 113.73 263 112.5C264.563 111.74 265.563 110.57 266 109C276.049 107.15 286.049 104.98 296 102.5C296.556 102.12 296.889 101.62 297 101C300.051 99.87 303.051 98.87 306 98C311.189 98.59 315.855 97.59 320 95C323.958 95.25 327.624 94.58 331 93C341.72 92.84 352.053 91.51 362 89C370.354 89.07 378.688 88.74 387 88C387.157 86.63 386.99 85.29 386.5 84C382.419 78.17 378.586 72.17 375 66C375.285 64.21 374.952 62.55 374 61C372.802 58.6 371.136 56.6 369 55C367.68 52.06 366.347 49.06 365 46C364.543 45.2 363.876 44.87 363 45C362.667 45 362.333 45 362 45C360.457 40.48 358.123 36.48 355 33C353.87 31.19 353.204 29.19 353 27C395.333 27 437.667 27 480 27C479.457 29.54 478.457 31.87 477 34Z" fill="#FF4401"/>
<path fill-rule="evenodd" clip-rule="evenodd" d="M362 45C360.457 40.48 358.123 36.48 355 33C355.811 37.96 358.144 41.96 362 45Z" fill="#C5C5C5"/>
<path fill-rule="evenodd" clip-rule="evenodd" d="M476 36C475.421 38.83 474.088 41.16 472 43C472.579 40.17 473.912 37.84 476 36Z" fill="#8B8B8B"/>
<path fill-rule="evenodd" clip-rule="evenodd" d="M363 45C363.876 44.87 364.543 45.2 365 46C366.347 49.06 367.68 52.06 369 55C368.042 54.55 367.208 53.8802 366.5 53.0002C365.594 50.1902 364.427 47.52 363 45Z" fill="#777777"/>
<path fill-rule="evenodd" clip-rule="evenodd" d="M472 43C471.285 47.7 469.285 51.7 466 55C466.936 50.46 468.936 46.46 472 43Z" fill="#B0B0B0"/>
<path fill-rule="evenodd" clip-rule="evenodd" d="M369 55C371.136 56.6 372.802 58.6 374 61C374.952 62.55 375.285 64.21 375 66C372.281 62.89 370.281 59.22 369 55Z" fill="#7A7A7A"/>
<path fill-rule="evenodd" clip-rule="evenodd" d="M464 57C463.908 59.35 462.908 61.01 461 62C461.25 59.83 462.25 58.16 464 57Z" fill="#ACACAC"/>
<path fill-rule="evenodd" clip-rule="evenodd" d="M448 86C451.732 87.63 455.732 88.63 460 89C455.667 89 451.333 89 447 89C446.763 87.71 447.096 86.71 448 86Z" fill="#ABABAB"/>
<path fill-rule="evenodd" clip-rule="evenodd" d="M460 89C469.229 89.18 478.229 90.18 487 92C477.73 92.18 468.73 91.18 460 89Z" fill="#898989"/>
<path fill-rule="evenodd" clip-rule="evenodd" d="M331 93C341.72 92.84 352.053 91.51 362 89C351.442 89.59 341.109 90.92 331 93Z" fill="#9F9F9F"/>
<path fill-rule="evenodd" clip-rule="evenodd" d="M320 95C323.958 95.25 327.624 94.58 331 93C327.113 93.15 323.446 93.81 320 95Z" fill="#A6A6A6"/>
<path fill-rule="evenodd" clip-rule="evenodd" d="M487 92C493.225 92.4 499.225 93.4 505 95C498.659 95.28 492.659 94.28 487 92Z" fill="#8A8A8A"/>
<path fill-rule="evenodd" clip-rule="evenodd" d="M306 98C311.189 98.59 315.855 97.59 320 95C315.053 95.22 310.386 96.22 306 98Z" fill="#8A8A8A"/>
<path fill-rule="evenodd" clip-rule="evenodd" d="M505 95C510.27 95.24 515.27 96.24 520 98C514.63 98.26 509.63 97.26 505 95Z" fill="#8D8D8D"/>
<path fill-rule="evenodd" clip-rule="evenodd" d="M520 98C524.34 98.08 528.34 99.08 532 101C527.58 101.23 523.58 100.23 520 98Z" fill="#8B8B8B"/>
<path fill-rule="evenodd" clip-rule="evenodd" d="M306 98C303.051 98.87 300.051 99.87 297 101C294.404 101.77 291.737 102.1 289 102C294.378 99.88 300.045 98.55 306 98Z" fill="#A6A6A6"/>
<path fill-rule="evenodd" clip-rule="evenodd" d="M297 101C296.889 101.62 296.556 102.12 296 102.5C286.049 104.98 276.049 107.15 266 109C273.683 106.66 281.35 104.33 289 102C291.737 102.1 294.404 101.77 297 101Z" fill="#6B6B6B"/>
<path fill-rule="evenodd" clip-rule="evenodd" d="M532 101C535.66 100.65 538.66 101.65 541 104C537.65 103.79 534.65 102.79 532 101Z" fill="#818181"/>
<path fill-rule="evenodd" clip-rule="evenodd" d="M547 105C550.58 105.48 553.92 106.48 557 108C554.64 108.16 552.31 108 550 107.5C548.38 107.26 547.38 106.43 547 105Z" fill="#7C7C7C"/>
<path fill-rule="evenodd" clip-rule="evenodd" d="M266 109C265.563 110.57 264.563 111.74 263 112.5C257.66 113.73 252.327 114.9 247 116C253.134 113.35 259.467 111.02 266 109Z" fill="#717171"/>
<path fill-rule="evenodd" clip-rule="evenodd" d="M577 116C581.55 116.62 585.89 117.95 590 120C592.29 121.08 594.29 122.41 596 124C589.4 121.78 583.07 119.11 577 116Z" fill="#6B6B6B"/>
<path fill-rule="evenodd" clip-rule="evenodd" d="M247 116C244.766 118.39 242.099 120.22 239 121.5C232.569 123.59 226.236 125.75 220 128C228.423 122.85 237.423 118.85 247 116Z" fill="#757575"/>
<path fill-rule="evenodd" clip-rule="evenodd" d="M370 143C367.552 142.03 364.885 141.69 362 142C365.682 141.24 369.515 140.57 373.5 140C375.326 140.51 375.493 141.34 374 142.5C372.707 142.99 371.373 143.16 370 143Z" fill="#9D9D9D"/>
<path fill-rule="evenodd" clip-rule="evenodd" d="M362 142C364.885 141.69 367.552 142.03 370 143C363.589 145.86 356.922 148.2 350 150C348.12 149.73 346.787 150.4 346 152C344.208 152.81 342.208 153.31 340 153.5C331.462 158.13 322.795 162.46 314 166.5C304.934 171.42 296.6 177.25 289 184C287.245 184.57 285.578 185.41 284 186.5C278.333 191.5 272.667 196.5 267 201.5C261.402 206.59 256.402 212.09 252 218C248.597 220.4 245.93 223.4 244 227C240.944 229.45 238.611 232.45 237 236C234.516 238.3 232.516 240.97 231 244C228.678 245.3 227.345 247.3 227 250C226.474 251.73 225.474 253.06 224 254C221.279 257.39 218.946 261.06 217 265C214.632 269.69 212.299 274.35 210 279C206.846 280.62 205.179 283.29 205 287C205 287.67 205 288.33 205 289C201.339 293.32 199.006 298.32 198 304C196.677 306.96 195.343 309.96 194 313C193.211 313.28 192.544 313.78 192 314.5C180.5 314.67 169 314.83 157.5 315C145.647 315 134.147 314.33 123 313C123.44 310.12 124.44 307.45 126 305C160.731 232.92 215.731 183.92 291 158C294.577 158.36 297.577 157.36 300 155C305.129 153.8 310.129 152.47 315 151C317.652 151.09 319.985 150.42 322 149C326.651 148.87 330.985 147.87 335 146C337.559 146.3 339.893 145.97 342 145C345.35 145.17 348.683 145 352 144.5C352.556 144.12 352.889 143.62 353 143C356.213 143.31 359.213 142.98 362 142Z" fill="#FCFCFC"/>
<path fill-rule="evenodd" clip-rule="evenodd" d="M362 142C359.213 142.98 356.213 143.31 353 143C349.113 143.15 345.446 143.81 342 145C339.893 145.97 337.559 146.3 335 146C343.473 142.55 352.473 141.22 362 142Z" fill="#757575"/>
<path fill-rule="evenodd" clip-rule="evenodd" d="M353 143C352.889 143.62 352.556 144.12 352 144.5C348.683 145 345.35 145.17 342 145C345.446 143.81 349.113 143.15 353 143Z" fill="#C1C1C1"/>
<path fill-rule="evenodd" clip-rule="evenodd" d="M335 146C330.985 147.87 326.651 148.87 322 149C321 149 320 149 319 149C320.526 147.37 322.526 146.54 325 146.5C328.317 146 331.65 145.83 335 146Z" fill="#6D6D6D"/>
<path fill-rule="evenodd" clip-rule="evenodd" d="M1099 155C1101.44 156.37 1104.1 157.37 1107 158C1114.33 161 1121.66 164 1129 167C1135.83 171.51 1143.17 172.84 1151 171C1152.72 170.87 1154.38 170.54 1156 170C1161.99 168.74 1167.99 168.74 1174 170C1184.9 175.06 1193.06 183.06 1198.5 194C1201.56 199.45 1204.06 205.12 1206 211C1205.91 213.65 1206.58 215.99 1208 218C1207.91 220.65 1208.58 222.99 1210 225C1210 225.33 1210 225.67 1210 226C1211.58 237.26 1212.25 248.6 1212 260C1211.98 262.06 1211.65 264.06 1211 266C1209.55 268.75 1208.55 271.75 1208 275C1200.26 293.14 1186.42 302.47 1166.5 303C1154.69 303.76 1145.36 299.43 1138.5 290C1130.83 277.33 1123.17 264.67 1115.5 252C1095.19 228.43 1069.35 217.27 1038 218.5C1017.05 222.62 1003.05 234.78 996 255C994.43 256.6 993.76 258.6 994 261C992.99 263.82 992.16 266.82 991.5 270C990.68 279.18 990.84 288.18 992 297C991.74 300.77 992.08 304.44 993 308C992.84 310.69 993 313.35 993.5 316C993.78 316.92 994.28 317.58 995 318C994.95 320.4 995.28 322.74 996 325C996.84 331.2 998.84 336.87 1002 342C1024.29 397.32 1064.95 419.48 1124 408.5C1134.72 405.48 1145.05 401.48 1155 396.5C1162.67 390.83 1170.33 385.17 1178 379.5C1189.24 377.91 1196.91 382.41 1201 393C1201.87 401.3 1202.2 409.63 1202 418C1197.21 436.74 1187.88 452.91 1174 466.5C1165.81 470.67 1157.14 473.34 1148 474.5C1134.89 479.56 1121.89 484.89 1109 490.5C1043.27 510.21 983.27 499.21 929 457.5C902.05 433.11 883.05 403.61 872 369C870.75 362.89 869.42 356.89 868 351C867.58 346.59 866.91 342.26 866 338C865.69 323.61 866.36 309.28 868 295C868 294.67 868 294.33 868 294C869.42 291.99 870.09 289.65 870 287C870 286.67 870 286.33 870 286C871.42 283.99 872.09 281.65 872 279C873.81 276.36 874.81 273.36 875 270C894.9 219.6 929.9 183.77 980 162.5C1018.86 146.59 1058.53 144.09 1099 155Z" fill="#4C4C4C"/>
<path fill-rule="evenodd" clip-rule="evenodd" d="M318 149C317 149.67 316 150.33 315 151C310.129 152.47 305.129 153.8 300 155C305.441 151.62 311.441 149.62 318 149Z" fill="#6E6E6E"/>
<path fill-rule="evenodd" clip-rule="evenodd" d="M318 149C318.333 149 318.667 149 319 149C320 149 321 149 322 149C319.985 150.42 317.652 151.09 315 151C316 150.33 317 149.67 318 149Z" fill="#B4B4B4"/>
<path fill-rule="evenodd" clip-rule="evenodd" d="M350 150C348.986 151.17 347.653 151.84 346 152C346.787 150.4 348.12 149.73 350 150Z" fill="#A0A0A0"/>
<path fill-rule="evenodd" clip-rule="evenodd" d="M1897 153C1882.93 152.6 1868.93 153.27 1855 155C1857.51 153.26 1860.51 152.43 1864 152.5C1875.17 151.67 1886.17 151.84 1897 153Z" fill="#BEBEBE"/>
<path fill-rule="evenodd" clip-rule="evenodd" d="M1897 153C1917.01 154.5 1935.68 160.34 1953 170.5C1966.4 178.56 1975.23 190.06 1979.5 205C1982.81 228.57 1973.31 244.07 1951 251.5C1934.97 253.58 1920.64 249.58 1908 239.5C1900.36 230.86 1892.36 222.53 1884 214.5C1876.73 208.97 1868.73 207.64 1860 210.5C1853.31 215.75 1850.81 222.58 1852.5 231C1856.81 241.77 1863.64 250.61 1873 257.5C1882.33 263.5 1891.67 269.5 1901 275.5C1906.04 279.36 1909.7 284.19 1912 290C1912.56 291.29 1913.56 292.12 1915 292.5C1929 293 1943 293.17 1957 293C1959.16 294.23 1961.33 295.57 1963.5 297C1963.96 312.44 1962.96 327.78 1960.5 343C1959.33 344.39 1957.83 345.23 1956 345.5C1945.59 345.57 1935.26 346.24 1925 347.5C1920.86 350.59 1918.36 354.76 1917.5 360C1915.92 380.22 1917.25 400.22 1921.5 420C1922.76 426.35 1925.93 431.52 1931 435.5C1939.53 438.79 1947.87 442.45 1956 446.5C1964.93 455.45 1966.43 465.62 1960.5 477C1952.83 485.42 1943.33 490.59 1932 492.5C1924.67 493.83 1917.34 495.17 1910 496.5C1884.02 498.2 1858.02 498.87 1832 498.5C1813.96 498.02 1796.96 493.69 1781 485.5C1771.31 477.95 1767.81 468.12 1770.5 456C1771.96 453.54 1773.79 451.37 1776 449.5C1782.67 445.83 1789.33 442.17 1796 438.5C1802.61 430.57 1806.11 421.4 1806.5 411C1808.24 394.03 1808.91 377.03 1808.5 360C1806.93 352.76 1802.43 348.6 1795 347.5C1788 347.17 1781 346.83 1774 346.5C1771.25 345.9 1769.25 344.4 1768 342C1769.4 329.38 1770.06 316.71 1770 304C1770.5 301.34 1771.83 299.18 1774 297.5C1778.89 296.28 1783.89 295.61 1789 295.5C1792.87 291.84 1794.03 287.34 1792.5 282C1788.84 274.37 1785.17 266.7 1781.5 259C1766.99 209.5 1784.16 176.33 1833 159.5C1840.15 157.05 1847.48 155.55 1855 155C1868.93 153.27 1882.93 152.6 1897 153Z" fill="#4C4C4C"/>
<path fill-rule="evenodd" clip-rule="evenodd" d="M1099 155C1102.22 154.85 1104.88 155.85 1107 158C1104.1 157.37 1101.44 156.37 1099 155Z" fill="#BCBCBC"/>
<path fill-rule="evenodd" clip-rule="evenodd" d="M291 158C294.577 158.36 297.577 157.36 300 155C296.794 155.58 293.794 156.58 291 158Z" fill="#B4B4B4"/>
<path fill-rule="evenodd" clip-rule="evenodd" d="M1129 167C1133.05 167.85 1137.05 169.02 1141 170.5C1144.32 171 1147.65 171.17 1151 171C1143.17 172.84 1135.83 171.51 1129 167Z" fill="#BDBDBD"/>
<path fill-rule="evenodd" clip-rule="evenodd" d="M1174 170C1167.99 168.74 1161.99 168.74 1156 170C1158.52 168.53 1161.35 167.86 1164.5 168C1167.95 167.92 1171.12 168.59 1174 170Z" fill="#C6C6C6"/>
<path fill-rule="evenodd" clip-rule="evenodd" d="M2099 187C2109.01 186.83 2119.01 187 2129 187.5C2131.09 188.29 2132.92 189.46 2134.5 191C2135.79 207.6 2136.46 224.27 2136.5 241C2136.77 242.83 2137.61 244.33 2139 245.5C2159.91 246.81 2180.91 247.48 2202 247.5C2204.5 248.67 2206.33 250.5 2207.5 253C2208.17 265 2208.17 277 2207.5 289C2206.63 295.2 2203.13 298.7 2197 299.5C2178.33 299.83 2159.67 300.17 2141 300.5C2138.83 301.33 2137.33 302.83 2136.5 305C2135.83 338.33 2135.83 371.67 2136.5 405C2141.44 426.27 2154.28 433.44 2175 426.5C2180.16 424.09 2185.16 421.42 2190 418.5C2196.49 417.28 2201.66 419.45 2205.5 425C2212.25 437.98 2211.25 450.31 2202.5 462C2172.13 491.79 2135.63 504.29 2093 499.5C2051.6 493.76 2027.76 470.26 2021.5 429C2021.17 386 2020.83 343 2020.5 300C2020.03 298.57 2019.2 297.4 2018 296.5C2005.33 296.17 1992.67 295.83 1980 295.5C1977.4 293.78 1975.9 291.28 1975.5 288C1974.4 279.81 1975.06 271.81 1977.5 264C2017.67 237.67 2058.17 212 2099 187Z" fill="#4C4C4C"/>
<path fill-rule="evenodd" clip-rule="evenodd" d="M289 184C276.693 195.31 264.359 206.64 252 218C256.402 212.09 261.402 206.59 267 201.5C272.667 196.5 278.333 191.5 284 186.5C285.578 185.41 287.245 184.57 289 184Z" fill="#999999"/>
<path fill-rule="evenodd" clip-rule="evenodd" d="M1206 211C1207.42 213.01 1208.09 215.35 1208 218C1206.58 215.99 1205.91 213.65 1206 211Z" fill="#919191"/>
<path fill-rule="evenodd" clip-rule="evenodd" d="M1208 218C1209.42 220.01 1210.09 222.35 1210 225C1208.58 222.99 1207.91 220.65 1208 218Z" fill="#9A9A9A"/>
<path fill-rule="evenodd" clip-rule="evenodd" d="M252 218C250.07 221.6 247.403 224.6 244 227C245.93 223.4 248.597 220.4 252 218Z" fill="#A0A0A0"/>
<path fill-rule="evenodd" clip-rule="evenodd" d="M244 227C242.389 230.55 240.056 233.55 237 236C238.611 232.45 240.944 229.45 244 227Z" fill="#A2A2A2"/>
<path fill-rule="evenodd" clip-rule="evenodd" d="M237 236C235.971 239.39 233.971 242.06 231 244C232.516 240.97 234.516 238.3 237 236Z" fill="#989898"/>
<path fill-rule="evenodd" clip-rule="evenodd" d="M733 239C735.36 242.05 737.36 245.38 739 249C735.5 246.69 733.5 243.36 733 239Z" fill="#767676"/>
<path fill-rule="evenodd" clip-rule="evenodd" d="M231 244C230.16 246.35 228.826 248.35 227 250C227.345 247.3 228.678 245.3 231 244Z" fill="#A2A2A2"/>
<path fill-rule="evenodd" clip-rule="evenodd" d="M1638 247C1627.97 246.77 1617.97 247.1 1608 248C1608.11 247.38 1608.44 246.88 1609 246.5C1618.84 245.68 1628.51 245.84 1638 247Z" fill="#C1C1C1"/>
<path fill-rule="evenodd" clip-rule="evenodd" d="M1638 247C1668.85 248.52 1695.02 260.18 1716.5 282C1723.56 290.36 1727.4 300.02 1728 311C1728.53 343.34 1729.36 375.68 1730.5 408C1730.73 409.24 1731.23 410.24 1732 411C1733.2 416.43 1735.03 421.76 1737.5 427C1739.04 428.88 1740.88 430.38 1743 431.5C1747.04 432.37 1751.04 433.37 1755 434.5C1756.64 435.63 1757.64 437.13 1758 439C1758.13 443.38 1757.79 447.71 1757 452C1752.3 465.21 1744.3 476.04 1733 484.5C1711.61 499.95 1688.27 503.95 1663 496.5C1654.46 491.95 1647.12 485.95 1641 478.5C1637.2 475.67 1633.2 475.34 1629 477.5C1597.31 501.58 1562.65 506.91 1525 493.5C1493.67 477.01 1480.84 451.17 1486.5 416C1491.74 400.74 1500.91 388.24 1514 378.5C1531.2 366.65 1550.2 359.32 1571 356.5C1585.31 355.46 1599.65 354.79 1614 354.5C1616.33 353.5 1618.67 352.5 1621 351.5C1621.75 350.83 1622.09 350 1622 349C1622.72 348.58 1623.22 347.92 1623.5 347C1624.33 336.49 1624.16 326.16 1623 316C1622.37 296.19 1612.37 287.35 1593 289.5C1587.24 293.25 1582.08 297.75 1577.5 303C1569.36 315.8 1559.2 326.63 1547 335.5C1535.62 341.91 1523.96 342.58 1512 337.5C1502.1 330.13 1498.26 320.3 1500.5 308C1505.04 294.09 1513.54 283.25 1526 275.5C1551.32 260.45 1578.65 251.28 1608 248C1617.97 247.1 1627.97 246.77 1638 247Z" fill="#4C4C4C"/>
<path fill-rule="evenodd" clip-rule="evenodd" d="M1419 249C1424.82 247.85 1430.82 247.68 1437 248.5C1440.63 248.65 1443.97 249.48 1447 251C1437.74 249.44 1428.41 248.77 1419 249Z" fill="#C4C4C4"/>
<path fill-rule="evenodd" clip-rule="evenodd" d="M1356 253C1357.25 259.11 1358.58 265.11 1360 271C1359.73 277.12 1361.73 282.29 1366 286.5C1367.67 287.17 1369.33 287.17 1371 286.5C1378.24 277.59 1385.9 268.92 1394 260.5C1401.68 255.01 1410.01 251.17 1419 249C1428.41 248.77 1437.74 249.44 1447 251C1465.21 258.36 1476.71 271.7 1481.5 291C1484.81 316.19 1476.65 336.69 1457 352.5C1439.18 364.29 1420.51 365.95 1401 357.5C1392.08 351.25 1383.75 344.25 1376 336.5C1369.68 333.48 1365.01 334.98 1362 341C1361.28 341.42 1360.78 342.08 1360.5 343C1360 345.65 1359.84 348.31 1360 351C1360 351.67 1360 352.33 1360 353C1358.84 372.83 1358.67 392.83 1359.5 413C1359.62 417.93 1360.45 422.6 1362 427C1363.15 431.45 1365.48 435.29 1369 438.5C1377.16 441.44 1385.16 444.78 1393 448.5C1396.22 450.22 1398.55 452.72 1400 456C1401.54 460.85 1402.21 465.85 1402 471C1399.17 482.12 1392.17 489.28 1381 492.5C1374.06 494.16 1367.06 495.49 1360 496.5C1333.7 498.71 1307.37 499.38 1281 498.5C1268.18 497.37 1255.51 495.37 1243 492.5C1230.59 490.25 1222.92 483.08 1220 471C1219.72 466.17 1220.39 461.51 1222 457C1223.7 453.45 1226.04 450.28 1229 447.5C1236.49 443.84 1242.16 438.34 1246 431C1247.28 428.94 1248.11 426.6 1248.5 424C1251.75 392.74 1252.75 361.41 1251.5 330C1251.13 328.01 1250.29 326.34 1249 325C1247.87 323.37 1246.54 321.87 1245 320.5C1234.59 317.73 1227.09 311.57 1222.5 302C1220.96 291.63 1224.46 283.47 1233 277.5C1248.64 268.5 1265.31 261.84 1283 257.5C1300.96 252.17 1319.29 249.01 1338 248C1342.07 248 1346.07 248.5 1350 249.5C1352.53 249.92 1354.53 251.09 1356 253Z" fill="#4C4C4C"/>
<path fill-rule="evenodd" clip-rule="evenodd" d="M1210 226C1211.33 229.76 1212.17 233.76 1212.5 238C1213.32 245.51 1213.16 252.85 1212 260C1212.25 248.6 1211.58 237.26 1210 226Z" fill="#A9A9A9"/>
<path fill-rule="evenodd" clip-rule="evenodd" d="M1356 253C1358.97 258.51 1360.3 264.51 1360 271C1358.58 265.11 1357.25 259.11 1356 253Z" fill="#878787"/>
<path fill-rule="evenodd" clip-rule="evenodd" d="M996 255C996.24 257.4 995.57 259.4 994 261C993.76 258.6 994.43 256.6 996 255Z" fill="#9E9E9E"/>
<path fill-rule="evenodd" clip-rule="evenodd" d="M224 254C224.157 255.37 223.99 256.71 223.5 258C221.157 260.24 218.99 262.57 217 265C218.946 261.06 221.279 257.39 224 254Z" fill="#A1A1A1"/>
<path fill-rule="evenodd" clip-rule="evenodd" d="M1211 266C1211.05 269.49 1210.05 272.49 1208 275C1208.55 271.75 1209.55 268.75 1211 266Z" fill="#969696"/>
<path fill-rule="evenodd" clip-rule="evenodd" d="M872 279C873.81 276.36 874.81 273.36 875 270C873.03 272.58 872.03 275.58 872 279Z" fill="#9E9E9E"/>
<path fill-rule="evenodd" clip-rule="evenodd" d="M752 274C754.24 277.38 755.91 281.05 757 285C753.96 281.96 752.3 278.29 752 274Z" fill="#828282"/>
<path fill-rule="evenodd" clip-rule="evenodd" d="M870 286C871.42 283.99 872.09 281.65 872 279C870.58 281.01 869.91 283.35 870 286Z" fill="#A6A6A6"/>
<path fill-rule="evenodd" clip-rule="evenodd" d="M210 279C208.721 281.94 207.055 284.6 205 287C205.179 283.29 206.846 280.62 210 279Z" fill="#B2B2B2"/>
<path fill-rule="evenodd" clip-rule="evenodd" d="M994 261C992.38 272.93 991.71 284.93 992 297C990.84 288.18 990.68 279.18 991.5 270C992.16 266.82 992.99 263.82 994 261Z" fill="#A9A9A9"/>
<path fill-rule="evenodd" clip-rule="evenodd" d="M757 286C759.43 289.6 761.09 293.6 762 298C758.54 294.96 756.88 290.96 757 286Z" fill="#7A7A7A"/>
<path fill-rule="evenodd" clip-rule="evenodd" d="M1912 290C1913.42 290.21 1914.76 290.71 1916 291.5C1929.84 291.67 1943.51 292.17 1957 293C1943 293.17 1929 293 1915 292.5C1913.56 292.12 1912.56 291.29 1912 290Z" fill="#DCDCDC"/>
<path fill-rule="evenodd" clip-rule="evenodd" d="M868 294C869.42 291.99 870.09 289.65 870 287C868.58 289.01 867.91 291.35 868 294Z" fill="#BABABA"/>
<path fill-rule="evenodd" clip-rule="evenodd" d="M205 289C203.45 294.43 201.116 299.43 198 304C199.006 298.32 201.339 293.32 205 289Z" fill="#808080"/>
<path fill-rule="evenodd" clip-rule="evenodd" d="M62.0002 292C60.8672 295.24 60.0332 298.57 59.5002 302C58.6192 304.51 57.1192 306.51 55.0002 308C56.5272 302.19 58.8612 296.86 62.0002 292Z" fill="#757575"/>
<path fill-rule="evenodd" clip-rule="evenodd" d="M762 298C763.42 300.01 764.09 302.35 764 305C762.58 302.99 761.91 300.65 762 298Z" fill="#949494"/>
<path fill-rule="evenodd" clip-rule="evenodd" d="M764 305C765.97 307.58 766.97 310.58 767 314C765.19 311.36 764.19 308.36 764 305Z" fill="#949494"/>
<path fill-rule="evenodd" clip-rule="evenodd" d="M123 313C134.147 314.33 145.647 315 157.5 315C169 314.83 180.5 314.67 192 314.5C192.544 313.78 193.211 313.28 194 313C194.073 314.53 193.406 315.53 192 316C168.667 316 145.333 316 122 316C121.763 314.71 122.096 313.71 123 313Z" fill="#DCDCDC"/>
<path fill-rule="evenodd" clip-rule="evenodd" d="M993 308C994.08 311.13 994.75 314.46 995 318C994.28 317.58 993.78 316.92 993.5 316C993 313.35 992.84 310.69 993 308Z" fill="#9D9D9D"/>
<path fill-rule="evenodd" clip-rule="evenodd" d="M126 305C124.44 307.45 123.44 310.12 123 313C122.096 313.71 121.763 314.71 122 316C145.333 316 168.667 316 192 316C184.697 317.33 177.03 318 169 318C152.667 317.59 136.333 317.26 120 317C120.522 313.93 121.355 310.93 122.5 308C123.259 306.44 124.426 305.44 126 305Z" fill="#767676"/>
<path fill-rule="evenodd" clip-rule="evenodd" d="M47.0002 332C50.1952 327.24 51.8612 321.91 52.0002 316C49.8092 321.08 48.1422 326.41 47.0002 332Z" fill="#787878"/>
<path fill-rule="evenodd" clip-rule="evenodd" d="M767 314C769.25 319 770.58 324.33 771 330C768.55 325.05 767.21 319.72 767 314Z" fill="#8B8B8B"/>
<path fill-rule="evenodd" clip-rule="evenodd" d="M868 295C866.36 309.28 865.69 323.61 866 338C864.84 328.51 864.679 318.84 865.499 309C866.019 304.14 866.86 299.47 868 295Z" fill="#BDBDBD"/>
<path fill-rule="evenodd" clip-rule="evenodd" d="M996 325C998.37 330.44 1000.37 336.11 1002 342C998.84 336.87 996.84 331.2 996 325Z" fill="#909090"/>
<path fill-rule="evenodd" clip-rule="evenodd" d="M1623 316C1624.16 326.16 1624.33 336.49 1623.5 347C1623.22 347.92 1622.72 348.58 1622 349C1622.91 338.03 1623.24 327.03 1623 316Z" fill="#D9D9D9"/>
<path fill-rule="evenodd" clip-rule="evenodd" d="M771 330C772.54 332.34 773.21 335 773 338C771.46 335.66 770.79 333 771 330Z" fill="#919191"/>
<path fill-rule="evenodd" clip-rule="evenodd" d="M1770 304C1770.06 316.71 1769.4 329.38 1768 342C1767.34 340.37 1767.01 338.53 1767 336.5C1767.98 325.51 1768.98 314.68 1770 304Z" fill="#DDDDDD"/>
<path fill-rule="evenodd" clip-rule="evenodd" d="M1362 341C1361.75 344.54 1361.08 347.87 1360 351C1359.84 348.31 1360 345.65 1360.5 343C1360.78 342.08 1361.28 341.42 1362 341Z" fill="#8E8E8E"/>
<path fill-rule="evenodd" clip-rule="evenodd" d="M776 355C776.95 356.42 777.28 358.09 777 360C777 361 777 362 777 363C747.83 363.33 718.83 363 690 362C718.67 362 747.33 362 776 362C776 359.67 776 357.33 776 355Z" fill="#636363"/>
<path fill-rule="evenodd" clip-rule="evenodd" d="M35.0002 383C39.2532 371.2 41.9202 358.87 43.0002 346C38.9532 357.91 36.2862 370.25 35.0002 383Z" fill="#717171"/>
<path fill-rule="evenodd" clip-rule="evenodd" d="M106 364C114.15 363.01 122.483 362.67 131 363C317.167 362.67 503.17 363 689 364C494.584 364.03 300.251 364.03 106 364Z" fill="#D9D9D9"/>
<path fill-rule="evenodd" clip-rule="evenodd" d="M777 360C777.93 361.07 778.27 362.4 778 364C748.33 364 718.67 364 689 364C503.17 363 317.167 362.67 131 363C317.166 362 503.5 361.67 690 362C718.83 363 747.83 363.33 777 363C777 362 777 361 777 360Z" fill="#A3A3A3"/>
<path fill-rule="evenodd" clip-rule="evenodd" d="M872 369C870.75 362.89 869.42 356.89 868 351C867.7 357.49 869.03 363.49 872 369Z" fill="#BCBCBC"/>
<path fill-rule="evenodd" clip-rule="evenodd" d="M1728 311C1728.81 313.13 1729.31 315.46 1729.5 318C1729.52 349.03 1730.35 380.03 1732 411C1731.23 410.24 1730.73 409.24 1730.5 408C1729.36 375.68 1728.53 343.34 1728 311Z" fill="#6A6A6A"/>
<path fill-rule="evenodd" clip-rule="evenodd" d="M1624 398C1624.28 406.34 1624.62 414.67 1625 423C1625.05 433.75 1620.38 441.58 1611 446.5C1598.48 448.33 1590.31 443.16 1586.5 431C1582.08 412.1 1588.58 398.6 1606 390.5C1611.77 389.28 1617.1 390.28 1622 393.5C1623.08 394.83 1623.75 396.33 1624 398Z" fill="#FBFBFB"/>
<path fill-rule="evenodd" clip-rule="evenodd" d="M1249 325C1250.29 326.34 1251.13 328.01 1251.5 330C1252.75 361.41 1251.75 392.74 1248.5 424C1248.11 426.6 1247.28 428.94 1246 431C1251.17 395.72 1252.17 360.39 1249 325Z" fill="#BEBEBE"/>
<path fill-rule="evenodd" clip-rule="evenodd" d="M32.0002 406C33.5312 401.25 34.1982 396.25 34.0002 391C32.7752 395.79 32.1082 400.79 32.0002 406Z" fill="#818181"/>
<path fill-rule="evenodd" clip-rule="evenodd" d="M1201 393C1203.39 397.06 1204.39 401.56 1204 406.5C1204.15 410.61 1203.48 414.45 1202 418C1202.2 409.63 1201.87 401.3 1201 393Z" fill="#838383"/>
<path fill-rule="evenodd" clip-rule="evenodd" d="M1624 398C1625.54 402.56 1626.21 407.4 1626 412.5C1626 416.18 1625.67 419.68 1625 423C1624.62 414.67 1624.28 406.34 1624 398Z" fill="#CFCFCF"/>
<path fill-rule="evenodd" clip-rule="evenodd" d="M100 400C99.8482 406.2 99.1822 412.2 98.0002 418C97.6842 411.75 98.3502 405.75 100 400Z" fill="#BBBBBB"/>
<path fill-rule="evenodd" clip-rule="evenodd" d="M1360 353C1359.58 377.71 1360.25 402.38 1362 427C1360.45 422.6 1359.62 417.93 1359.5 413C1358.67 392.83 1358.84 372.83 1360 353Z" fill="#7F7F7F"/>
<path fill-rule="evenodd" clip-rule="evenodd" d="M1758 439C1758.66 440.63 1758.99 442.47 1759 444.5C1759.2 447.37 1758.53 449.87 1757 452C1757.79 447.71 1758.13 443.38 1758 439Z" fill="#888888"/>
<path fill-rule="evenodd" clip-rule="evenodd" d="M97.0002 429C95.8442 442.83 95.844 456.49 97 470C97 474 97.0002 478 97.0002 482C95.6682 473.53 95.0022 464.69 95.0002 455.5C95.0022 446.31 95.6682 437.47 97.0002 429Z" fill="#626262"/>
<path fill-rule="evenodd" clip-rule="evenodd" d="M32.0002 406C30.1192 443.73 30.9522 481.4 34.5002 519C36.2482 526.65 37.9152 534.32 39.5002 542C40.4772 547.29 40.9772 552.63 41.0002 558C32.5732 523.15 28.5726 487.65 28.9996 451.5C29.3536 436.14 30.3542 420.97 32.0002 406Z" fill="#767676"/>
<path fill-rule="evenodd" clip-rule="evenodd" d="M98.0002 418C97.4522 435.33 97.118 452.66 97 470C95.844 456.49 95.8442 442.83 97.0002 429C96.6852 425.13 97.0182 421.46 98.0002 418Z" fill="#B8B8B8"/>
<path fill-rule="evenodd" clip-rule="evenodd" d="M1222 457C1220.39 461.51 1219.72 466.17 1220 471C1218.86 467.52 1218.69 463.86 1219.5 460C1219.88 458.56 1220.71 457.56 1222 457Z" fill="#B3B3B3"/>
<path fill-rule="evenodd" clip-rule="evenodd" d="M1400 456C1401.29 457.34 1402.13 459.01 1402.5 461C1403.31 464.53 1403.14 467.86 1402 471C1402.21 465.85 1401.54 460.85 1400 456Z" fill="#9C9C9C"/>
<path fill-rule="evenodd" clip-rule="evenodd" d="M102 527C104.164 531.63 105.164 536.63 105 542C103.693 537.18 102.693 532.18 102 527Z" fill="#C6C6C6"/>
<path fill-rule="evenodd" clip-rule="evenodd" d="M1461 534C1450.98 533.91 1440.98 534.24 1431 535C1436.76 533.5 1442.76 532.83 1449 533C1453.18 533 1457.18 533.33 1461 534Z" fill="#919191"/>
<path fill-rule="evenodd" clip-rule="evenodd" d="M1461 534C1467.14 534.52 1473.14 535.68 1479 537.5C1486.29 540.66 1493.63 543.49 1501 546C1507.16 546.77 1513.49 546.77 1520 546C1529.46 549.87 1535.46 556.87 1538 567C1538.76 571.27 1540.09 575.27 1542 579C1543.68 588.76 1543.18 598.43 1540.5 608C1537.01 614.67 1531.84 619.33 1525 622C1520.04 622.75 1515.04 623.09 1510 623C1505.81 621.32 1502.31 618.65 1499.5 615C1494.28 603.45 1487.11 593.28 1478 584.5C1472.86 580.6 1467.2 577.77 1461 576C1456.77 574.47 1452.27 573.81 1447.5 574C1444.33 574.17 1441.17 574.33 1438 574.5C1436.01 574.87 1434.34 575.71 1433 577C1429.17 578.32 1426 580.65 1423.5 584C1416.89 593.05 1414.05 603.21 1415 614.5C1415.51 635.38 1422.35 653.88 1435.5 670C1443.79 678.89 1453.95 684.23 1466 686C1474.54 687.31 1483.2 687.14 1492 685.5C1492.56 685.12 1492.89 684.62 1493 684C1498.76 682.13 1504.43 679.97 1510 677.5C1514.15 673.92 1518.49 670.59 1523 667.5C1528.38 666.44 1532.54 668.27 1535.5 673C1538.68 680.6 1538.68 688.27 1535.5 696C1532.07 705.24 1526.57 712.91 1519 719C1516.1 719.63 1513.44 720.63 1511 722C1500.61 724.52 1490.61 728.19 1481 733C1478.35 732.91 1476.01 733.58 1474 735C1473.33 735 1472.67 735 1472 735C1468.46 735.25 1465.13 735.92 1462 737C1449.59 737.42 1437.26 736.75 1425 735C1424.67 735 1424.33 735 1424 735C1421.99 733.58 1419.65 732.91 1417 733C1377.06 720.06 1352.39 693.06 1343 652C1341.67 641.67 1341.67 631.33 1343 621C1348.79 590.02 1365.13 566.19 1392 549.5C1404.2 542.38 1417.2 537.55 1431 535C1440.98 534.24 1450.98 533.91 1461 534Z" fill="#4D4D4D"/>
<path fill-rule="evenodd" clip-rule="evenodd" d="M1083 536C1066.98 535.8 1050.98 536.13 1035 537C1043.71 534.64 1052.71 533.64 1062 534C1069.23 533.83 1076.23 534.5 1083 536Z" fill="#797979"/>
<path fill-rule="evenodd" clip-rule="evenodd" d="M965 570C962.49 571.98 960.99 574.65 960.5 578C959.92 597.5 959.42 617 959 636.5C959 644.17 959.33 651.67 960 659C961.78 676.55 971.11 687.88 988 693C989.52 693.91 991.19 694.74 993 695.5C999.85 696.32 1006.51 696.15 1013 695C1021.56 692.63 1029.06 688.3 1035.5 682C1037.27 679.47 1038.77 676.8 1040 674C1041.71 672.86 1042.38 671.2 1042 669C1042.59 667.73 1043.09 666.4 1043.5 665C1044 642 1044.17 619 1044 596C1044.17 590.32 1044 584.66 1043.5 579C1043.4 575.98 1042.57 573.31 1041 571C1039.93 568.76 1038.27 566.93 1036 565.5C1029.91 563.46 1024.91 559.96 1021 555C1019.07 549.78 1020.07 545.28 1024 541.5C1027.23 538.88 1030.9 537.38 1035 537C1050.98 536.13 1066.98 535.8 1083 536C1091.57 535.73 1098.57 538.73 1104 545C1104.46 547.98 1104.8 550.98 1105 554C1101.77 558.71 1097.44 562.21 1092 564.5C1089.38 566.61 1087.38 569.11 1086 572C1085.19 574.13 1084.69 576.46 1084.5 579C1084 606 1083.83 633 1084 660C1084 660.67 1084 661.33 1084 662C1082.87 669.84 1081.87 677.84 1081 686C1075.98 701.19 1066.65 713.02 1053 721.5C1044.24 726.24 1035.24 730.08 1026 733C1023.35 732.91 1021.01 733.58 1019 735C1018.33 735 1017.67 735 1017 735C1011.4 735.28 1006.06 736.28 1001 738C984.14 738.8 967.47 737.47 951 734C948.99 732.58 946.65 731.91 944 732C920.57 725.4 903.74 711.07 893.5 689C892.14 680.25 890.97 671.58 890 663C890.36 635.66 890.52 608.33 890.5 581C890.3 579.12 889.8 577.45 889 576C887.93 573.42 886.27 571.26 884 569.5C879.15 567.15 875.48 563.65 873 559C871.47 553.99 872.14 549.33 875 545C877.22 541.88 880.22 539.71 884 538.5C889.86 536.71 895.86 535.71 902 535.5C924.46 534.21 946.79 535.21 969 538.5C982.23 543.89 984.56 552.22 976 563.5C971.94 565.19 968.27 567.36 965 570Z" fill="#4C4C4C"/>
<path fill-rule="evenodd" clip-rule="evenodd" d="M779 541C648.67 540.83 518.33 541 388 541.5C387.377 544.11 386.71 546.61 386 549C385.723 546.05 386.056 543.22 387 540.5C517.83 539.67 648.5 539.83 779 541Z" fill="#D7D7D7"/>
<path fill-rule="evenodd" clip-rule="evenodd" d="M779 541C779.28 542.91 778.95 544.58 778 546C778 544.67 778 543.33 778 542C648.33 542.67 518.67 543.17 389 543.5C387.892 551.22 386.225 558.72 384 566C384.993 560.37 385.66 554.71 386 549C386.71 546.61 387.377 544.11 388 541.5C518.33 541 648.67 540.83 779 541Z" fill="#767676"/>
<path fill-rule="evenodd" clip-rule="evenodd" d="M1501 546C1507.16 546.77 1513.49 546.77 1520 546C1513.83 545.12 1507.5 545.12 1501 546Z" fill="#868686"/>
<path fill-rule="evenodd" clip-rule="evenodd" d="M1104 545C1105.98 547.87 1106.31 550.87 1105 554C1104.8 550.98 1104.46 547.98 1104 545Z" fill="#9A9A9A"/>
<path fill-rule="evenodd" clip-rule="evenodd" d="M875 545C872.14 549.33 871.47 553.99 873 559C872.28 558.58 871.78 557.92 871.5 557C870.09 552.1 871.26 548.1 875 545Z" fill="#979797"/>
<path fill-rule="evenodd" clip-rule="evenodd" d="M43.0002 565C42.7792 562.43 42.1122 560.1 41.0002 558C40.6712 560.73 41.3372 563.06 43.0002 565Z" fill="#8A8A8A"/>
<path fill-rule="evenodd" clip-rule="evenodd" d="M1538 567C1540.31 570.58 1541.64 574.58 1542 579C1540.09 575.27 1538.76 571.27 1538 567Z" fill="#7B7B7B"/>
<path fill-rule="evenodd" clip-rule="evenodd" d="M773 573C772.57 577.58 771.57 581.91 770 586C770.01 581.33 771.01 577 773 573Z" fill="#9A9A9A"/>
<path fill-rule="evenodd" clip-rule="evenodd" d="M1461 576C1451.55 574.38 1442.22 574.71 1433 577C1434.34 575.71 1436.01 574.87 1438 574.5C1441.17 574.33 1444.33 574.17 1447.5 574C1452.27 573.81 1456.77 574.47 1461 576Z" fill="#CFCFCF"/>
<path fill-rule="evenodd" clip-rule="evenodd" d="M384 566C383.789 571.1 382.455 575.77 380 580C380.93 575.7 381.763 571.37 382.5 567C382.883 566.44 383.383 566.11 384 566Z" fill="#969696"/>
<path fill-rule="evenodd" clip-rule="evenodd" d="M1041 571C1042.57 573.31 1043.4 575.98 1043.5 579C1044 584.66 1044.17 590.32 1044 596C1043.22 587.78 1042.22 579.45 1041 571Z" fill="#949494"/>
<path fill-rule="evenodd" clip-rule="evenodd" d="M1850 697C1851.94 698.66 1854.27 699.33 1857 699C1859.46 700.37 1860.46 702.54 1860 705.5C1858.65 714.53 1854.32 721.87 1847 727.5C1843.05 730.33 1839.05 732.83 1835 735C1826.42 736.64 1817.76 737.31 1809 737C1806.09 735.68 1803.09 734.52 1800 733.5C1796.66 729.31 1792.66 726.14 1788 724C1782.59 726.54 1777.26 729.37 1772 732.5C1767.39 734.31 1762.72 735.81 1758 737C1746.01 737.98 1734.35 736.64 1723 733C1705.41 723.13 1698.57 708.13 1702.5 688C1707.49 675.18 1716.32 666.18 1729 661C1733.03 660.48 1736.7 659.14 1740 657C1742.65 657.09 1744.99 656.42 1747 655C1757.91 653.62 1768.91 652.62 1780 652C1780.31 651.19 1780.81 650.53 1781.5 650C1782.17 643 1782.17 636 1781.5 629C1779.85 616.99 1773.35 612.82 1762 616.5C1754.9 624.69 1747.57 632.69 1740 640.5C1736.61 642.12 1733.27 643.62 1730 645C1725.51 645.23 1721.17 644.56 1717 643C1710.35 637.4 1708.51 630.4 1711.5 622C1719.42 610.09 1730.26 601.92 1744 597.5C1748.67 596.27 1753.33 595.1 1758 594C1760.65 594.09 1762.99 593.42 1765 592C1779.37 590.36 1793.7 590.86 1808 593.5C1823.39 597.56 1834.56 606.72 1841.5 621C1841.83 622.67 1842.17 624.33 1842.5 626C1843.73 643.97 1844.4 661.97 1844.5 680C1844.53 686.37 1846.36 692.04 1850 697Z" fill="#4D4D4D"/>
<path fill-rule="evenodd" clip-rule="evenodd" d="M2130 592C2118.97 591.76 2107.97 592.09 2097 593C2097.42 592.28 2098.08 591.78 2099 591.5C2109.51 590.67 2119.84 590.84 2130 592Z" fill="#747474"/>
<path fill-rule="evenodd" clip-rule="evenodd" d="M1163 592C1170.42 591.7 1177.75 592.04 1185 593C1186.1 597.41 1187.1 601.74 1188 606C1188.72 608.06 1189.38 610.22 1190 612.5C1191.67 613.17 1193.33 613.17 1195 612.5C1199.24 607.25 1203.91 602.25 1209 597.5C1210.58 596.41 1212.24 595.57 1214 595C1217.15 594.76 1220.15 593.93 1223 592.5C1226.32 592 1229.65 591.83 1233 592C1244.2 593.53 1251.86 599.53 1256 610C1257.72 616.85 1258.39 623.85 1258 631C1255.09 640.59 1249.43 648.26 1241 654C1232.94 656.73 1224.61 657.73 1216 657C1209.05 653.25 1202.72 648.41 1197 642.5C1195 641.83 1193 641.83 1191 642.5C1190.44 642.88 1190.11 643.38 1190 644C1188.53 644.85 1187.7 646.18 1187.5 648C1187.33 654.5 1187.17 661 1187 667.5C1186.8 676.89 1187.47 686.05 1189 695C1190.05 697.43 1191.38 699.76 1193 702C1196.02 703.9 1199.35 705.23 1203 706C1213.6 710.32 1215.77 717.32 1209.5 727C1206.5 730.24 1203 732.57 1199 734C1194.4 733.78 1190.07 734.45 1186 736C1168 736 1150 736 1132 736C1130.12 735.16 1128.12 734.83 1126 735C1124.4 733.43 1122.4 732.76 1120 733C1108.15 729.96 1104.32 722.63 1108.5 711C1112.2 706.96 1116.2 703.3 1120.5 700C1121.01 698.97 1121.51 697.97 1122 697C1123.03 693.51 1123.87 689.85 1124.5 686C1125.17 669.67 1125.17 653.33 1124.5 637C1124.22 636.08 1123.72 635.42 1123 635C1118.95 632.22 1114.78 629.55 1110.5 627C1108.16 622.94 1107.49 618.61 1108.5 614C1113.48 608.1 1119.65 604.1 1127 602C1132.67 601.11 1138 599.44 1143 597C1145.09 595.56 1147.42 594.89 1150 595C1154.81 595.54 1159.15 594.54 1163 592Z" fill="#4C4C4C"/>
<path fill-rule="evenodd" clip-rule="evenodd" d="M1624 593C1625.47 593.85 1626.3 595.18 1626.5 597C1627.18 602.07 1628.18 607.07 1629.5 612C1631.23 613.08 1633.06 613.24 1635 612.5C1639.57 605.1 1645.57 599.27 1653 595C1660.52 593.24 1668.18 592.58 1676 593C1687.65 595.82 1694.82 603.15 1697.5 615C1700.14 630.42 1695.31 642.92 1683 652.5C1678.65 654.89 1673.98 656.39 1669 657C1663.96 657.09 1658.96 656.75 1654 656C1652.24 655.43 1650.58 654.59 1649 653.5C1644.7 650.2 1640.7 646.54 1637 642.5C1633.54 641.46 1630.7 642.3 1628.5 645C1626.91 658.94 1626.57 672.94 1627.5 687C1628.25 691.4 1629.25 695.73 1630.5 700C1631.21 700.88 1632.04 701.55 1633 702C1635.55 704.08 1638.55 705.42 1642 706C1652.01 709.71 1654.51 716.38 1649.5 726C1647.59 728.36 1645.42 730.36 1643 732C1639.25 733.11 1635.58 734.11 1632 735C1626.43 734.88 1621.1 735.54 1616 737C1603.3 737.28 1590.63 736.94 1578 736C1572.88 734.69 1567.55 734.03 1562 734C1560.4 732.43 1558.4 731.76 1556 732C1549.26 729.87 1545.92 725.2 1546 718C1547.13 710.69 1551.13 705.52 1558 702.5C1559.54 700.92 1560.71 699.09 1561.5 697C1563.88 677.07 1564.55 657.07 1563.5 637C1561.33 633.49 1558.16 631.32 1554 630.5C1544.67 622.83 1544.67 615.17 1554 607.5C1564.19 602.23 1574.86 598.4 1586 596C1595.78 594.34 1605.61 593.01 1615.5 592C1618.35 592.3 1621.18 592.63 1624 593Z" fill="#4D4D4D"/>
<path fill-rule="evenodd" clip-rule="evenodd" d="M1983 595C1997.93 593.22 2012.93 592.55 2028 593C2033.5 592.78 2038 594.78 2041.5 599C2044.12 604.45 2042.95 608.95 2038 612.5C2030.51 613.82 2024.35 617.32 2019.5 623C2002.66 654.02 1986.32 685.35 1970.5 717C1966.16 725.83 1959.99 732.83 1952 738C1948.3 737.95 1944.64 737.61 1941 737C1933.07 729.82 1926.57 721.49 1921.5 712C1906.75 683.51 1891.75 655.18 1876.5 627C1874.63 624.79 1872.46 622.96 1870 621.5C1863.27 620.72 1858.11 617.55 1854.5 612C1853.78 603.95 1857.28 598.45 1865 595.5C1867.93 594.55 1870.93 594.05 1874 594C1878.29 594.3 1882.29 593.64 1886 592C1906.44 590.24 1926.77 591.07 1947 594.5C1951.26 595.88 1954.76 598.38 1957.5 602C1958.17 604.33 1958.17 606.67 1957.5 609C1955.26 613.25 1952.26 616.91 1948.5 620C1947.13 622.2 1946.79 624.53 1947.5 627C1950.08 635.99 1954.58 643.83 1961 650.5C1964.82 651.52 1968.32 651.02 1971.5 649C1975.67 642.65 1979.34 635.99 1982.5 629C1983.62 626.06 1983.96 623.06 1983.5 620C1981.56 616.39 1979.22 613.06 1976.5 610C1973.22 602.56 1975.39 597.56 1983 595Z" fill="#4D4D4D"/>
<path fill-rule="evenodd" clip-rule="evenodd" d="M2028 593C2012.93 592.55 1997.93 593.22 1983 595C1985.7 593.54 1988.7 592.7 1992 592.5C2004.17 591.67 2016.17 591.84 2028 593Z" fill="#6D6D6D"/>
<path fill-rule="evenodd" clip-rule="evenodd" d="M2130 592C2131 592 2132 592 2133 592C2135.2 593.9 2137.86 594.9 2141 595C2170.4 605.23 2184.57 625.9 2183.5 657C2182.28 662.7 2179.11 666.7 2174 669C2149.33 668.83 2124.66 669 2100 669.5C2099.44 669.88 2099.11 670.38 2099 671C2098.39 676.16 2099.56 680.82 2102.5 685C2108.27 691.96 2115.43 696.62 2124 699C2127.14 700.14 2130.47 700.31 2134 699.5C2137.63 699.35 2140.97 698.52 2144 697C2147.22 697.15 2149.88 696.15 2152 694C2155.76 692.09 2159.43 689.92 2163 687.5C2165.67 686.83 2168.33 686.83 2171 687.5C2178.8 694.68 2179.97 702.85 2174.5 712C2165.73 721.61 2155.23 728.61 2143 733C2133.27 735.26 2123.44 736.93 2113.5 738C2106.96 737.62 2100.46 736.95 2094 736C2093.67 736 2093.33 736 2093 736C2091.4 734.43 2089.4 733.76 2087 734C2058.75 724.4 2042.42 704.73 2038 675C2037.95 665.98 2038.28 656.98 2039 648C2045.84 623.83 2060.84 606.83 2084 597C2088.27 596.24 2092.27 594.91 2096 593C2096.33 593 2096.67 593 2097 593C2107.97 592.09 2118.97 591.76 2130 592Z" fill="#4C4C4C"/>
<path fill-rule="evenodd" clip-rule="evenodd" d="M1233 592C1229.65 591.83 1226.32 592 1223 592.5C1220.15 593.93 1217.15 594.76 1214 595C1219.94 591.19 1226.27 590.19 1233 592Z" fill="#8B8B8B"/>
<path fill-rule="evenodd" clip-rule="evenodd" d="M1624 593C1621.18 592.63 1618.35 592.3 1615.5 592C1605.61 593.01 1595.78 594.34 1586 596C1597.58 592.13 1609.58 590.63 1622 591.5C1622.92 591.78 1623.58 592.28 1624 593Z" fill="#878787"/>
<path fill-rule="evenodd" clip-rule="evenodd" d="M1676 593C1668.18 592.58 1660.52 593.24 1653 595C1657.36 592.37 1662.19 591.03 1667.5 591C1670.65 590.86 1673.48 591.53 1676 593Z" fill="#858585"/>
<path fill-rule="evenodd" clip-rule="evenodd" d="M1758 594C1760.65 594.09 1762.99 593.42 1765 592C1762.35 591.91 1760.01 592.58 1758 594Z" fill="#8F8F8F"/>
<path fill-rule="evenodd" clip-rule="evenodd" d="M1874 594C1878.29 594.3 1882.29 593.64 1886 592C1881.71 591.7 1877.71 592.36 1874 594Z" fill="#818181"/>
<path fill-rule="evenodd" clip-rule="evenodd" d="M2133 592C2135.99 592.4 2138.65 593.4 2141 595C2137.86 594.9 2135.2 593.9 2133 592Z" fill="#868686"/>
<path fill-rule="evenodd" clip-rule="evenodd" d="M1150 595C1154.81 595.54 1159.15 594.54 1163 592C1158.51 592.84 1154.18 593.84 1150 595Z" fill="#7E7E7E"/>
<path fill-rule="evenodd" clip-rule="evenodd" d="M2084 597C2088.27 596.24 2092.27 594.91 2096 593C2091.58 593.36 2087.58 594.69 2084 597Z" fill="#7D7D7D"/>
<path fill-rule="evenodd" clip-rule="evenodd" d="M1185 593C1187.54 596.85 1188.54 601.19 1188 606C1187.1 601.74 1186.1 597.41 1185 593Z" fill="#858585"/>
<path fill-rule="evenodd" clip-rule="evenodd" d="M1127 602C1132.67 601.11 1138 599.44 1143 597C1137.33 597.89 1132 599.56 1127 602Z" fill="#7A7A7A"/>
<path fill-rule="evenodd" clip-rule="evenodd" d="M965 570C963.56 572.82 962.39 575.82 961.5 579C960.6 605.66 960.1 632.33 960 659C959.33 651.67 959 644.17 959 636.5C959.42 617 959.92 597.5 960.5 578C960.99 574.65 962.49 571.98 965 570Z" fill="#BBBBBB"/>
<path fill-rule="evenodd" clip-rule="evenodd" d="M52.0002 595C53.6752 598.11 55.3422 601.44 57.0002 605C57.6562 606.95 57.9892 608.95 58.0002 611C55.0362 606.12 53.0362 600.78 52.0002 595Z" fill="#7A7A7A"/>
<path fill-rule="evenodd" clip-rule="evenodd" d="M1086 572C1085.5 601.5 1084.84 630.83 1084 660C1083.83 633 1084 606 1084.5 579C1084.69 576.46 1085.19 574.13 1086 572Z" fill="#909090"/>
<path fill-rule="evenodd" clip-rule="evenodd" d="M379 584C379.149 587.11 378.649 590.11 377.5 593C374.606 599.55 371.439 605.88 368 612C371.308 602.39 374.975 593.05 379 584Z" fill="#7C7C7C"/>
<path fill-rule="evenodd" clip-rule="evenodd" d="M767 596C765.58 603.72 763.24 611.05 760 618C760.36 609.93 762.69 602.6 767 596Z" fill="#727272"/>
<path fill-rule="evenodd" clip-rule="evenodd" d="M65.0002 627C64.7692 620.96 62.4362 615.96 58.0002 612C60.0972 617.19 62.4302 622.19 65.0002 627Z" fill="#777777"/>
<path fill-rule="evenodd" clip-rule="evenodd" d="M2107 617C2125.32 615.14 2132.32 622.97 2128 640.5C2127.19 640.81 2126.53 641.31 2126 642C2117.69 643.17 2109.35 643.33 2101 642.5C2097.3 639.1 2096.13 634.94 2097.5 630C2099.72 624.85 2102.89 620.52 2107 617Z" fill="#F7F7F7"/>
<path fill-rule="evenodd" clip-rule="evenodd" d="M363 623C365.593 619.95 367.259 616.28 368 612C365.777 615.3 364.11 618.97 363 623Z" fill="#797979"/>
<path fill-rule="evenodd" clip-rule="evenodd" d="M1256 610C1257.29 611.34 1258.13 613.01 1258.5 615C1259.32 620.52 1259.15 625.85 1258 631C1258.39 623.85 1257.72 616.85 1256 610Z" fill="#898989"/>
<path fill-rule="evenodd" clip-rule="evenodd" d="M1525 622C1522.31 623.49 1519.31 624.16 1516 624C1513.8 624 1511.8 623.66 1510 623C1515.04 623.09 1520.04 622.75 1525 622Z" fill="#C8C8C8"/>
<path fill-rule="evenodd" clip-rule="evenodd" d="M132 618C134.744 621.15 136.744 624.81 138 629C137.004 629.09 136.171 628.75 135.5 628C134.03 624.76 132.863 621.42 132 618Z" fill="#757575"/>
<path fill-rule="evenodd" clip-rule="evenodd" d="M760 618C758.77 623.38 756.77 628.38 754 633C753.84 630.97 754 628.97 754.5 627C756.08 623.76 757.92 620.76 760 618Z" fill="#787878"/>
<path fill-rule="evenodd" clip-rule="evenodd" d="M353 639C356.18 637.23 358.18 634.56 359 631C356.238 633.1 354.238 635.76 353 639Z" fill="#828282"/>
<path fill-rule="evenodd" clip-rule="evenodd" d="M1343 621C1341.67 631.33 1341.67 641.67 1343 652C1342.28 651.58 1341.78 650.92 1341.5 650C1340.83 641.33 1340.83 632.67 1341.5 624C1341.73 622.76 1342.23 621.76 1343 621Z" fill="#C1C1C1"/>
<path fill-rule="evenodd" clip-rule="evenodd" d="M889 576C889.8 577.45 890.3 579.12 890.5 581C890.52 608.33 890.36 635.66 890 663C889.44 634.15 889.11 605.15 889 576Z" fill="#9F9F9F"/>
<path fill-rule="evenodd" clip-rule="evenodd" d="M751 640C749.16 645.02 746.83 649.68 744 654C744.24 648.19 746.57 643.52 751 640Z" fill="#747474"/>
<path fill-rule="evenodd" clip-rule="evenodd" d="M1717 643C1721.17 644.56 1725.51 645.23 1730 645C1727.2 646.14 1724.2 646.3 1721 645.5C1719.18 645.3 1717.85 644.47 1717 643Z" fill="#C0C0C0"/>
<path fill-rule="evenodd" clip-rule="evenodd" d="M348 647C350.664 645.02 352.331 642.35 353 639C350.836 641.32 349.169 643.99 348 647Z" fill="#A8A8A8"/>
<path fill-rule="evenodd" clip-rule="evenodd" d="M1241 654C1239.53 655.91 1237.53 657.08 1235 657.5C1228.49 658.32 1222.15 658.15 1216 657C1224.61 657.73 1232.94 656.73 1241 654Z" fill="#BFBFBF"/>
<path fill-rule="evenodd" clip-rule="evenodd" d="M1740 657C1742.65 657.09 1744.99 656.42 1747 655C1744.35 654.91 1742.01 655.58 1740 657Z" fill="#9B9B9B"/>
<path fill-rule="evenodd" clip-rule="evenodd" d="M1123 635C1123.72 635.42 1124.22 636.08 1124.5 637C1125.17 653.33 1125.17 669.67 1124.5 686C1123.87 689.85 1123.03 693.51 1122 697C1124.18 676.36 1124.51 655.7 1123 635Z" fill="#BABABA"/>
<path fill-rule="evenodd" clip-rule="evenodd" d="M1654 656C1658.96 656.75 1663.96 657.09 1669 657C1664.85 658.15 1660.52 658.31 1656 657.5C1655.08 657.22 1654.42 656.72 1654 656Z" fill="#959595"/>
<path fill-rule="evenodd" clip-rule="evenodd" d="M1190 644C1188.43 651.2 1187.77 658.53 1188 666C1188.24 675.67 1188.57 685.34 1189 695C1187.47 686.05 1186.8 676.89 1187 667.5C1187.17 661 1187.33 654.5 1187.5 648C1187.7 646.18 1188.53 644.85 1190 644Z" fill="#898989"/>
<path fill-rule="evenodd" clip-rule="evenodd" d="M87.0002 667C86.9082 662.82 85.2412 659.48 82.0002 657C83.2582 660.58 84.9252 663.91 87.0002 667Z" fill="#787878"/>
<path fill-rule="evenodd" clip-rule="evenodd" d="M153 652C156.762 655.43 159.762 659.43 162 664C160.129 663.64 158.629 662.64 157.5 661C155.288 658.31 153.788 655.31 153 652Z" fill="#6C6C6C"/>
<path fill-rule="evenodd" clip-rule="evenodd" d="M1729 661C1733.03 660.48 1736.7 659.14 1740 657C1735.97 657.52 1732.3 658.86 1729 661Z" fill="#858585"/>
<path fill-rule="evenodd" clip-rule="evenodd" d="M2039 648C2038.28 656.98 2037.95 665.98 2038 675C2037.33 671.35 2037 667.52 2037 663.5C2036.78 658.07 2037.45 652.9 2039 648Z" fill="#6F6F6F"/>
<path fill-rule="evenodd" clip-rule="evenodd" d="M325 676C334.401 667.44 342.067 657.77 348 647C340.576 656.84 332.91 666.51 325 676Z" fill="#9A9A9A"/>
<path fill-rule="evenodd" clip-rule="evenodd" d="M744 654C742.9 656.54 741.57 658.87 740 661C740.07 657.84 741.41 655.51 744 654Z" fill="#8B8B8B"/>
<path fill-rule="evenodd" clip-rule="evenodd" d="M2174 669C2149.13 669.68 2124.13 670.35 2099 671C2099.11 670.38 2099.44 669.88 2100 669.5C2124.66 669 2149.33 668.83 2174 669Z" fill="#A0A0A0"/>
<path fill-rule="evenodd" clip-rule="evenodd" d="M1084 662C1084.17 666.68 1084 671.35 1083.5 676C1083.35 679.63 1082.52 682.97 1081 686C1081.87 677.84 1082.87 669.84 1084 662Z" fill="#949494"/>
<path fill-rule="evenodd" clip-rule="evenodd" d="M1040 674C1041.71 672.86 1042.38 671.2 1042 669C1040.96 670.43 1040.3 672.1 1040 674Z" fill="#A1A1A1"/>
<path fill-rule="evenodd" clip-rule="evenodd" d="M1778 705C1774.4 705.84 1770.73 706.18 1767 706C1763.6 704.07 1761.43 701.07 1760.5 697C1757.84 684.63 1762.5 676.96 1774.5 674C1778.13 673.48 1780.8 674.81 1782.5 678C1783.55 686.16 1782.88 694.16 1780.5 702C1779.46 702.87 1778.62 703.87 1778 705Z" fill="#FBFBFB"/>
<path fill-rule="evenodd" clip-rule="evenodd" d="M1493 684C1492.89 684.62 1492.56 685.12 1492 685.5C1483.2 687.14 1474.54 687.31 1466 686C1475.09 686.33 1484.09 685.66 1493 684Z" fill="#7B7B7B"/>
<path fill-rule="evenodd" clip-rule="evenodd" d="M325 676C322.272 680.24 318.939 684.07 315 687.5C310.059 692.29 304.725 696.45 299 700C307.34 691.66 316.007 683.66 325 676Z" fill="#898989"/>
<path fill-rule="evenodd" clip-rule="evenodd" d="M988 693C996.21 694.73 1004.55 695.4 1013 695C1006.51 696.15 999.85 696.32 993 695.5C991.19 694.74 989.52 693.91 988 693Z" fill="#999999"/>
<path fill-rule="evenodd" clip-rule="evenodd" d="M2144 697C2147.22 697.15 2149.88 696.15 2152 694C2149.1 694.63 2146.44 695.63 2144 697Z" fill="#949494"/>
<path fill-rule="evenodd" clip-rule="evenodd" d="M1850 697C1852.65 696.91 1854.99 697.58 1857 699C1854.27 699.33 1851.94 698.66 1850 697Z" fill="#B7B7B7"/>
<path fill-rule="evenodd" clip-rule="evenodd" d="M2144 697C2140.97 698.52 2137.63 699.35 2134 699.5C2130.47 700.31 2127.14 700.14 2124 699C2130.72 698.8 2137.38 698.14 2144 697Z" fill="#909090"/>
<path fill-rule="evenodd" clip-rule="evenodd" d="M1193 702C1196.86 702.27 1200.19 703.6 1203 706C1199.35 705.23 1196.02 703.9 1193 702Z" fill="#B9B9B9"/>
<path fill-rule="evenodd" clip-rule="evenodd" d="M1633 702C1636.45 702.58 1639.45 703.92 1642 706C1638.55 705.42 1635.55 704.08 1633 702Z" fill="#9D9D9D"/>
<path fill-rule="evenodd" clip-rule="evenodd" d="M1778 705C1777.89 705.62 1777.56 706.12 1777 706.5C1773.47 707.31 1770.14 707.14 1767 706C1770.73 706.18 1774.4 705.84 1778 705Z" fill="#A8A8A8"/>
<path fill-rule="evenodd" clip-rule="evenodd" d="M127 717C128.083 717.04 129.083 717.37 130 718C133.199 721.7 136.865 724.86 141 727.5C143.307 729.63 144.974 732.13 146 735C138.983 729.65 132.649 723.65 127 717Z" fill="#717171"/>
<path fill-rule="evenodd" clip-rule="evenodd" d="M1519 719C1516.88 721.15 1514.22 722.15 1511 722C1513.44 720.63 1516.1 719.63 1519 719Z" fill="#BBBBBB"/>
<path fill-rule="evenodd" clip-rule="evenodd" d="M951 734C948.99 732.58 946.65 731.91 944 732C946.01 733.42 948.35 734.09 951 734Z" fill="#A6A6A6"/>
<path fill-rule="evenodd" clip-rule="evenodd" d="M1424 735C1421.99 733.58 1419.65 732.91 1417 733C1419.01 734.42 1421.35 735.09 1424 735Z" fill="#A6A6A6"/>
<path fill-rule="evenodd" clip-rule="evenodd" d="M1562 734C1560.4 732.43 1558.4 731.76 1556 732C1557.6 733.57 1559.6 734.24 1562 734Z" fill="#9E9E9E"/>
<path fill-rule="evenodd" clip-rule="evenodd" d="M1643 732C1642.15 733.47 1640.82 734.3 1639 734.5C1636.69 735 1634.36 735.16 1632 735C1635.58 734.11 1639.25 733.11 1643 732Z" fill="#BDBDBD"/>
<path fill-rule="evenodd" clip-rule="evenodd" d="M1026 733C1023.99 734.42 1021.65 735.09 1019 735C1021.01 733.58 1023.35 732.91 1026 733Z" fill="#B1B1B1"/>
<path fill-rule="evenodd" clip-rule="evenodd" d="M1126 735C1124.4 733.43 1122.4 732.76 1120 733C1121.6 734.57 1123.6 735.24 1126 735Z" fill="#A6A6A6"/>
<path fill-rule="evenodd" clip-rule="evenodd" d="M1481 733C1478.99 734.42 1476.65 735.09 1474 735C1476.01 733.58 1478.35 732.91 1481 733Z" fill="#B4B4B4"/>
<path fill-rule="evenodd" clip-rule="evenodd" d="M1578 736C1572.88 734.69 1567.55 734.03 1562 734C1567.08 735.58 1572.42 736.25 1578 736Z" fill="#828282"/>
<path fill-rule="evenodd" clip-rule="evenodd" d="M1723 733C1734.35 736.64 1746.01 737.98 1758 737C1746.59 738.88 1735.26 738.05 1724 734.5C1723.44 734.12 1723.11 733.62 1723 733Z" fill="#A8A8A8"/>
<path fill-rule="evenodd" clip-rule="evenodd" d="M1199 734C1198.24 734.77 1197.24 735.27 1196 735.5C1192.68 736 1189.35 736.17 1186 736C1190.07 734.45 1194.4 733.78 1199 734Z" fill="#C9C9C9"/>
<path fill-rule="evenodd" clip-rule="evenodd" d="M2093 736C2091.4 734.43 2089.4 733.76 2087 734C2088.6 735.57 2090.6 736.24 2093 736Z" fill="#9A9A9A"/>
<path fill-rule="evenodd" clip-rule="evenodd" d="M1017 735C1016.89 735.62 1016.56 736.12 1016 736.5C1011.04 737.41 1006.04 737.91 1001 738C1006.06 736.28 1011.4 735.28 1017 735Z" fill="#BDBDBD"/>
<path fill-rule="evenodd" clip-rule="evenodd" d="M1425 735C1437.26 736.75 1449.59 737.42 1462 737C1452.51 738.16 1442.84 738.32 1433 737.5C1429.98 737.4 1427.31 736.57 1425 735Z" fill="#A4A4A4"/>
<path fill-rule="evenodd" clip-rule="evenodd" d="M1472 735C1471.58 735.72 1470.92 736.22 1470 736.5C1467.35 737 1464.69 737.16 1462 737C1465.13 735.92 1468.46 735.25 1472 735Z" fill="#AAAAAA"/>
<path fill-rule="evenodd" clip-rule="evenodd" d="M1632 735C1626.95 736.76 1621.61 737.43 1616 737C1621.1 735.54 1626.43 734.88 1632 735Z" fill="#C7C7C7"/>
<path fill-rule="evenodd" clip-rule="evenodd" d="M1186 736C1168 736 1150 736 1132 736C1149.99 738.55 1167.99 738.55 1186 736Z" fill="#BFBFBF"/>
<path fill-rule="evenodd" clip-rule="evenodd" d="M1835 735C1833.22 736.1 1831.22 736.93 1829 737.5C1822.15 738.32 1815.49 738.15 1809 737C1817.76 737.31 1826.42 736.64 1835 735Z" fill="#9A9A9A"/>
<path fill-rule="evenodd" clip-rule="evenodd" d="M1941 737C1944.64 737.61 1948.3 737.95 1952 738C1950.71 738.66 1949.21 738.99 1947.5 739C1944.96 739.16 1942.79 738.5 1941 737Z" fill="#B8B8B8"/>
<path fill-rule="evenodd" clip-rule="evenodd" d="M2143 733C2142.89 733.62 2142.56 734.12 2142 734.5C2129.58 738.27 2116.92 739.61 2104 738.5C2100.37 738.35 2097.03 737.52 2094 736C2100.46 736.95 2106.96 737.62 2113.5 738C2123.44 736.93 2133.27 735.26 2143 733Z" fill="#C3C3C3"/>
<path fill-rule="evenodd" clip-rule="evenodd" d="M156 743C154.915 740.91 153.249 739.58 151 739C152.085 741.09 153.751 742.42 156 743Z" fill="#8A8A8A"/>
<path fill-rule="evenodd" clip-rule="evenodd" d="M214 781C211.619 776.75 207.953 774.75 203 775C206.223 777.75 209.889 779.75 214 781Z" fill="#747474"/>
<path fill-rule="evenodd" clip-rule="evenodd" d="M228 788C224.366 783.78 219.699 781.44 214 781C218.38 783.86 223.047 786.19 228 788Z" fill="#7C7C7C"/>
<path fill-rule="evenodd" clip-rule="evenodd" d="M613 781C611.32 782.51 609.32 783.51 607 784C608.41 781.96 610.41 780.96 613 781Z" fill="#9A9A9A"/>
<path fill-rule="evenodd" clip-rule="evenodd" d="M607 784C605.25 785.37 603.25 786.37 601 787C602.28 784.89 604.28 783.89 607 784Z" fill="#8A8A8A"/>
<path fill-rule="evenodd" clip-rule="evenodd" d="M600 787C598.47 788.75 596.47 789.75 594 790C595.53 788.25 597.53 787.25 600 787Z" fill="#919191"/>
<path fill-rule="evenodd" clip-rule="evenodd" d="M240 793C236.987 789.17 232.987 787.5 228 788C231.703 790.18 235.703 791.85 240 793Z" fill="#747474"/>
<path fill-rule="evenodd" clip-rule="evenodd" d="M594 790C591.99 791.57 589.66 792.57 587 793C588.82 791.05 591.15 790.05 594 790Z" fill="#939393"/>
<path fill-rule="evenodd" clip-rule="evenodd" d="M585 794C580.38 795.66 575.71 797.33 571 799C575.05 795.85 579.71 794.18 585 794Z" fill="#7A7A7A"/>
<path fill-rule="evenodd" clip-rule="evenodd" d="M571 799C568.9 800.98 566.24 801.98 563 802C565.35 800.4 568.01 799.4 571 799Z" fill="#B9B9B9"/>
<path fill-rule="evenodd" clip-rule="evenodd" d="M273 805C270.985 803.58 268.652 802.91 266 803C268.015 804.42 270.348 805.09 273 805Z" fill="#929292"/>
<path fill-rule="evenodd" clip-rule="evenodd" d="M553 805C550 806.78 546.66 807.78 543 808C545.84 805.71 549.18 804.71 553 805Z" fill="#757575"/>
<path fill-rule="evenodd" clip-rule="evenodd" d="M283 808C280.308 805.36 276.975 804.36 273 805C276.005 806.78 279.338 807.78 283 808Z" fill="#747474"/>
<path fill-rule="evenodd" clip-rule="evenodd" d="M294 811C291.901 809.89 289.567 809.22 287 809C288.938 810.66 291.272 811.33 294 811Z" fill="#9A9A9A"/>
<path fill-rule="evenodd" clip-rule="evenodd" d="M539 809C532.64 811.41 525.97 813.08 519 814C525.3 811.36 531.96 809.7 539 809Z" fill="#7C7C7C"/>
<path fill-rule="evenodd" clip-rule="evenodd" d="M331 819C322.891 816.81 314.558 815.14 306 814C314.015 816.62 322.348 818.28 331 819Z" fill="#979797"/>
<path fill-rule="evenodd" clip-rule="evenodd" d="M519 814C511.95 816.21 504.61 817.54 497 818C503.88 814.92 511.22 813.58 519 814Z" fill="#737373"/>
<path fill-rule="evenodd" clip-rule="evenodd" d="M491 819C486.6 820.6 481.934 821.27 477 821C481.464 819.86 486.13 819.19 491 819Z" fill="#8C8C8C"/>
<path fill-rule="evenodd" clip-rule="evenodd" d="M381 824C365.457 822.45 349.79 820.78 334 819C349.363 822.24 365.03 823.9 381 824Z" fill="#838383"/>
<path fill-rule="evenodd" clip-rule="evenodd" d="M477 821C465.567 823.05 453.901 824.05 442 824C453.42 821.81 465.086 820.81 477 821Z" fill="#777777"/>
</svg>
