<svg width="258" height="67" viewBox="0 0 258 67" fill="none" xmlns="http://www.w3.org/2000/svg">
<path fill-rule="evenodd" clip-rule="evenodd" d="M83.3692 31.7022C83.6727 31.7784 83.9058 31.829 84.07 31.8539C84.2341 31.8795 84.3792 31.8921 84.5061 31.8921C85.5161 31.8921 86.2357 31.5827 86.6645 30.9641C87.1065 30.333 87.3279 29.2725 87.3279 27.7824C87.3279 26.6462 87.1065 25.8065 86.6645 25.2633C86.2225 24.7209 85.5409 24.449 84.6197 24.449C84.0765 24.449 83.7167 24.6263 83.54 24.9796C83.3758 25.3329 83.2938 26.1912 83.2938 27.5551V29.2973C83.2938 29.891 83.3003 30.3579 83.3127 30.6986C83.3252 31.0395 83.3443 31.3744 83.3692 31.7021V31.7022ZM83.5209 36.5505V40.3002C83.5209 41.4869 83.559 42.2886 83.6345 42.7056C83.71 43.1096 83.8427 43.3807 84.0325 43.52C84.1586 43.6204 84.361 43.7531 84.638 43.9172C85.5982 44.4854 86.0774 45.1544 86.0774 45.9247C86.0774 46.8593 85.535 47.5218 84.4489 47.9132C83.3758 48.2921 81.4629 48.4812 78.7107 48.4812C75.9585 48.4812 73.9767 48.2731 72.7644 47.856C71.5653 47.4396 70.9651 46.758 70.9651 45.8111C70.9651 45.0665 71.4891 44.4156 72.5371 43.8608C72.7013 43.7721 72.8398 43.6966 72.9535 43.6336C73.2569 43.4694 73.5032 42.51 73.6923 40.7547C73.8946 39.0001 73.9957 36.6766 73.9957 33.7859V32.3465C73.9957 29.2278 73.9385 27.202 73.825 26.2674C73.7114 25.3329 73.5091 24.765 73.2187 24.5635C73.0546 24.4491 72.7958 24.3039 72.4426 24.1274C71.4575 23.6223 70.9651 23.0036 70.9651 22.2715C70.9651 21.5268 71.3945 20.9648 72.2528 20.5859C73.1118 20.2077 74.3863 20.0178 76.0786 20.0178C76.3058 20.0178 76.8482 20.0244 77.7072 20.0368C78.5655 20.0493 79.3167 20.0559 79.9602 20.0559C81.0083 20.0559 82.3716 20.031 84.0514 19.9804C85.7429 19.9299 86.9105 19.9041 87.5548 19.9041C90.8626 19.9041 93.4001 20.536 95.1671 21.7981C96.9474 23.0476 97.8379 24.847 97.8379 27.1954C97.8379 28.3191 97.6165 29.3165 97.1745 30.1872C96.7326 31.0462 96.0767 31.7659 95.2052 32.3465C95.0037 32.4857 94.7192 32.6433 94.3527 32.8199C93.7598 33.1226 93.4629 33.3946 93.4629 33.6342C93.4629 33.9246 93.8485 34.1833 94.6181 34.4105C95.3885 34.6378 95.9564 34.884 96.3229 35.1494C97.08 35.6793 97.6795 36.374 98.1215 37.2323C98.576 38.0914 98.9233 39.234 99.1629 40.6603C99.1887 40.8245 99.2202 41.0451 99.2583 41.3229C99.4855 42.7367 99.7692 43.507 100.11 43.6339C100.199 43.6712 100.312 43.7159 100.451 43.7658C101.689 44.2334 102.307 44.8264 102.307 45.546C102.307 46.4806 101.714 47.2376 100.527 47.8189C99.3528 48.3994 97.7874 48.6896 95.8304 48.6896C94.6687 48.6896 93.6588 48.5701 92.8005 48.3305C91.9414 48.1025 91.2284 47.7558 90.6603 47.2882C89.6503 46.4556 88.8104 44.7633 88.1419 42.2134C88.1288 42.1503 88.1163 42.0931 88.1039 42.0426C88.0657 41.8909 88.0027 41.6453 87.9148 41.3037C87.0814 38.0216 85.9578 36.3799 84.5432 36.3799C84.3541 36.3799 84.1774 36.3989 84.0132 36.4371C83.8491 36.4627 83.6849 36.5001 83.5207 36.5507L83.5209 36.5505ZM123.184 38.6716H114.416C113.936 38.6716 113.614 38.7156 113.45 38.8043C113.299 38.8798 113.223 39.019 113.223 39.2206C113.223 40.1801 113.709 41.0705 114.681 41.8907C115.666 42.6992 116.795 43.103 118.071 43.103C119.018 43.103 120.034 42.8193 121.12 42.2506C122.206 41.6825 122.856 41.399 123.071 41.399C123.538 41.399 123.923 41.588 124.226 41.967C124.541 42.3459 124.699 42.8253 124.699 43.4063C124.699 43.9239 124.485 44.4795 124.055 45.0722C123.626 45.6536 123.026 46.196 122.257 46.7008C121.246 47.37 120.167 47.8751 119.018 48.2164C117.882 48.5566 116.688 48.7273 115.439 48.7273C112.295 48.7273 109.688 47.7107 107.618 45.6783C105.56 43.6459 104.53 41.1077 104.53 38.0653C104.53 36.9541 104.701 35.8688 105.042 34.8081C105.383 33.7351 105.888 32.7377 106.557 31.8156C107.592 30.3512 108.905 29.2085 110.496 28.3883C112.099 27.5673 113.81 27.157 115.628 27.157C118.456 27.157 120.785 27.9714 122.616 29.6006C124.446 31.216 125.362 33.2493 125.362 35.6978C125.362 36.7585 125.192 37.5221 124.85 37.9898C124.523 38.4442 123.966 38.6714 123.184 38.6714L123.184 38.6716ZM115.041 34.7893H115.439C116.6 34.7893 117.295 34.7139 117.522 34.5621C117.761 34.4103 117.882 34.0381 117.882 33.445C117.882 32.7128 117.667 32.1192 117.237 31.6648C116.821 31.1972 116.284 30.9641 115.628 30.9641C114.946 30.9641 114.353 31.2352 113.848 31.7784C113.355 32.3083 113.109 32.9526 113.109 33.7096C113.109 34.1516 113.185 34.4419 113.337 34.5812C113.501 34.7197 113.898 34.7893 114.53 34.7893H115.041H115.041ZM128.475 37.7057C128.475 36.1029 128.759 34.6185 129.328 33.2553C129.896 31.8922 130.735 30.6864 131.846 29.6383C132.743 28.8049 133.746 28.1673 134.857 27.726C135.968 27.2709 137.111 27.0437 138.285 27.0437C139.724 27.0437 141.138 27.3786 142.527 28.0478C142.754 28.149 142.893 28.1988 142.944 28.1988C142.994 28.1988 143.032 28.1615 143.057 28.0852C143.083 27.9973 143.095 27.7635 143.095 27.3845V26.5701C143.095 26.1032 143.076 25.8065 143.038 25.6803C143.013 25.5418 142.969 25.4531 142.906 25.415C142.716 25.3146 142.414 25.1944 141.997 25.0551C141.05 24.7268 140.577 24.254 140.577 23.6347C140.577 23.0923 140.785 22.6438 141.201 22.2906C141.619 21.9241 142.338 21.5832 143.361 21.2681C144.673 20.8636 146.043 20.5418 147.469 20.302C148.909 20.0623 150.165 19.9422 151.238 19.9422C151.68 19.9422 151.964 20.0309 152.09 20.2076C152.217 20.3716 152.28 20.8137 152.28 21.5326V22.1578C152.28 22.3469 152.274 22.9091 152.261 23.8435C152.173 28.5526 152.129 33.2111 152.129 37.819V38.956C152.129 40.3572 152.16 41.3101 152.223 41.8151C152.299 42.3076 152.419 42.6294 152.583 42.7811C152.697 42.8691 153.12 43.0649 153.852 43.3683C154.596 43.6585 154.969 44.1005 154.969 44.6941C154.969 45.1104 154.83 45.5085 154.552 45.8867C154.275 46.2656 153.896 46.5749 153.416 46.8145C152.28 47.3833 151.075 47.8312 149.799 48.1594C148.524 48.4878 147.35 48.6521 146.277 48.6521C145.19 48.6521 144.458 48.5634 144.08 48.3867C143.701 48.21 143.511 47.8816 143.511 47.4015V46.5498C143.511 46.3724 143.486 46.2273 143.436 46.1137C143.385 45.9877 143.322 45.9246 143.247 45.9246C143.158 45.9246 142.957 46.0506 142.641 46.3035C142.451 46.4553 142.293 46.5748 142.167 46.6635C141.359 47.2564 140.608 47.6793 139.913 47.9321C139.219 48.1717 138.468 48.292 137.66 48.292C136.499 48.292 135.381 48.0457 134.308 47.5532C133.247 47.0605 132.269 46.3416 131.372 45.3946C130.401 44.359 129.674 43.2039 129.195 41.9285C128.715 40.6534 128.475 39.2461 128.475 37.7054L128.475 37.7057ZM138.285 37.8193C138.285 39.3343 138.506 40.5342 138.948 41.418C139.403 42.3013 139.996 42.7432 140.728 42.7432C141.587 42.7432 142.192 42.2316 142.546 41.2092C142.912 40.1742 143.095 38.3375 143.095 35.6982V34.6376C143.095 33.4509 142.969 32.6873 142.716 32.3465C142.477 31.9932 142.047 31.8158 141.428 31.8158C140.431 31.8158 139.655 32.3465 139.099 33.407C138.556 34.4551 138.285 35.9261 138.285 37.8192V37.8193ZM157.382 45.8868C157.382 45.5335 157.439 45.2301 157.552 44.9779C157.666 44.7125 157.867 44.4479 158.158 44.1826C158.372 43.9927 158.701 43.8103 159.143 43.6336C159.585 43.4438 159.85 43.2928 159.938 43.1784C160.153 42.8882 160.311 41.4743 160.412 38.937C160.513 36.3863 160.563 32.359 160.563 26.8546C160.563 25.9963 160.513 25.4657 160.412 25.2634C160.324 25.0493 160.008 24.8155 159.465 24.5635C158.897 24.2725 158.505 23.9763 158.29 23.6729C158.089 23.3577 157.988 22.9531 157.988 22.4605C157.988 21.5391 158.309 20.9016 158.954 20.5483C159.597 20.195 160.974 20.0177 163.082 20.0177C163.448 20.0177 163.985 20.0243 164.692 20.0367C165.412 20.0491 165.948 20.0558 166.301 20.0558C166.39 20.0558 167.318 20.0491 169.085 20.0367C170.865 20.0243 172.602 20.0177 174.293 20.0177C178.813 20.0177 182.298 21.2489 184.747 23.7109C187.208 26.1728 188.44 29.6762 188.44 34.2211C188.44 36.5695 188.08 38.6524 187.36 40.4708C186.64 42.2885 185.542 43.8856 184.065 45.262C182.878 46.36 181.457 47.1617 179.804 47.6668C178.15 48.1593 176.092 48.4055 173.631 48.4055C172.721 48.4055 170.991 48.355 168.441 48.2539C167.645 48.2164 167.04 48.1908 166.623 48.1784C166.118 48.1784 165.487 48.1717 164.729 48.1593C163.984 48.1468 163.486 48.1403 163.233 48.1403H161.018H160.469C159.345 48.0516 158.55 47.8375 158.082 47.4968C157.615 47.1427 157.382 46.6061 157.382 45.8865V45.8868ZM170.335 31.3051C170.335 33.5771 170.341 35.6293 170.354 37.4594C170.379 39.2779 170.411 40.5026 170.449 41.1336C170.512 42.0549 170.645 42.6609 170.846 42.9512C171.049 43.2289 171.421 43.3683 171.964 43.3683C173.958 43.3683 175.442 42.6676 176.414 41.2663C177.399 39.8649 177.891 37.7371 177.891 34.8839C177.891 31.5131 177.367 29.013 176.32 27.3845C175.284 25.7559 173.687 24.9417 171.528 24.9417C171.213 24.9417 170.947 24.9864 170.733 25.0743C170.531 25.163 170.423 25.2575 170.411 25.3587C170.386 25.4591 170.367 25.8381 170.354 26.4948C170.341 27.1516 170.335 28.7544 170.335 31.3051ZM204.108 29.601V41.6262C204.108 42.1312 204.152 42.5103 204.242 42.7623C204.342 43.0152 204.563 43.293 204.905 43.5957C204.967 43.6463 205.062 43.7284 205.188 43.8421C205.896 44.4225 206.248 45.0162 206.248 45.6223C206.248 46.5693 205.68 47.2823 204.544 47.7616C203.408 48.2418 201.709 48.4814 199.45 48.4814C197.152 48.4814 195.378 48.2294 194.129 47.7243C192.892 47.206 192.273 46.4806 192.273 45.546C192.273 44.9025 192.664 44.284 193.447 43.6903H193.465C193.529 43.6397 193.605 43.5832 193.693 43.5203C194.059 43.2292 194.274 42.9705 194.337 42.7433C194.438 42.4405 194.508 41.9224 194.545 41.1903C194.583 40.458 194.602 39.2714 194.602 37.6303V36.7779C194.602 35.5283 194.526 34.6758 194.375 34.2214C194.223 33.7669 193.933 33.4004 193.504 33.1226C193.465 33.0977 193.39 33.0538 193.276 32.9907C192.506 32.5356 192.121 31.9741 192.121 31.3051C192.121 30.7875 192.31 30.3515 192.689 29.9983C193.068 29.645 193.756 29.2785 194.753 28.8995C196.168 28.3571 197.632 27.9277 199.147 27.6126C200.675 27.2842 201.899 27.12 202.82 27.12C203.338 27.12 203.68 27.1956 203.844 27.3472C204.02 27.499 204.108 27.8647 204.108 28.4452V29.6011L204.108 29.601ZM196.666 26.1913C195.29 26.1913 194.242 25.9458 193.522 25.4533C192.815 24.9482 192.462 24.2095 192.462 23.2376C192.462 22.2151 193.119 21.3437 194.431 20.6239C195.745 19.8917 197.367 19.5252 199.299 19.5252C200.737 19.5252 201.848 19.759 202.632 20.2267C203.413 20.6935 203.805 21.3628 203.805 22.2334C203.805 23.3446 203.125 24.2857 201.761 25.0552C200.41 25.8131 198.711 26.1913 196.666 26.1913ZM227.465 41.8153C227.465 43.8104 226.704 45.4449 225.176 46.7202C223.648 47.9829 221.66 48.614 219.21 48.614C218.301 48.614 217.372 48.4937 216.426 48.2541C215.49 48.0269 214.992 47.9133 214.931 47.9133C214.74 47.9133 214.444 47.9888 214.04 48.1406C213.635 48.2922 213.327 48.3677 213.111 48.3677C212.328 48.3677 211.508 47.7748 210.65 46.5875C209.791 45.3884 209.361 44.1446 209.361 42.8569C209.361 42.074 209.5 41.4872 209.778 41.0957C210.057 40.7043 210.472 40.5085 211.028 40.5085C211.76 40.5085 212.574 40.9821 213.472 41.9289C213.584 42.0551 213.674 42.1503 213.736 42.2134C214.355 42.8569 214.917 43.3429 215.421 43.6711C215.927 43.9871 216.387 44.1446 216.804 44.1446C217.094 44.1446 217.34 44.0625 217.543 43.8984C217.744 43.7217 217.845 43.5202 217.845 43.2929C217.845 42.623 217.209 42.0044 215.933 41.4364C215.49 41.2473 215.144 41.0897 214.892 40.9629C213.237 40.1426 211.975 39.1453 211.104 37.971C210.245 36.7968 209.817 35.5091 209.817 34.1078C209.817 32.2396 210.592 30.6358 212.145 29.2976C213.71 27.9468 215.586 27.2711 217.769 27.2711C218.301 27.2711 218.945 27.3598 219.701 27.5363C220.472 27.7005 220.965 27.7827 221.179 27.7827C221.456 27.7827 221.828 27.6815 222.296 27.4799C222.777 27.2652 223.118 27.1574 223.32 27.1574C224.114 27.1574 224.935 27.7196 225.78 28.8431C226.639 29.9667 227.068 31.1093 227.068 32.2711C227.068 32.9527 226.861 33.5017 226.443 33.9187C226.04 34.3225 225.503 34.5242 224.834 34.5242C224.456 34.5242 224.095 34.4552 223.754 34.316C223.414 34.1649 223.06 33.9246 222.693 33.5962C222.516 33.432 222.27 33.1924 221.956 32.8764C221.122 32.0181 220.397 31.5887 219.778 31.5887C219.462 31.5887 219.191 31.6898 218.964 31.8922C218.735 32.0945 218.622 32.34 218.622 32.631C218.622 33.1734 219.393 33.811 220.932 34.5431C221.399 34.758 221.766 34.9346 222.032 35.0738C224.014 36.0707 225.414 37.0872 226.236 38.1229C227.056 39.1579 227.465 40.3892 227.465 41.8153H227.465ZM242.283 22.2716V29.8275C242.283 30.169 242.309 30.3963 242.358 30.5099C242.409 30.6235 242.504 30.6799 242.644 30.6799C242.77 30.6799 242.991 30.4718 243.305 30.0554C243.559 29.7139 243.772 29.4493 243.949 29.2595C244.606 28.5529 245.37 28.0289 246.241 27.6881C247.126 27.334 248.111 27.1574 249.195 27.1574C250.56 27.1574 251.778 27.4858 252.85 28.1425C253.924 28.7861 254.694 29.6765 255.161 30.8126C255.666 32.0117 255.951 34.5116 256.013 38.312C256.026 39.3221 256.038 40.0988 256.052 40.6412C256.052 40.7549 256.057 40.919 256.069 41.1338C256.094 42.5351 256.259 43.4249 256.561 43.8039C256.651 43.905 256.808 44.0501 257.035 44.2392C257.678 44.7824 258.001 45.3571 258.001 45.963C258.001 46.8339 257.51 47.4589 256.525 47.8379C255.54 48.2168 253.899 48.4059 251.601 48.4059C249.39 48.4059 247.763 48.1978 246.714 47.7807C245.679 47.3645 245.162 46.7202 245.162 45.8495C245.162 45.4954 245.321 45.0982 245.636 44.6562C245.95 44.2018 246.141 43.9115 246.204 43.7847C246.367 43.4564 246.487 43.04 246.563 42.5351C246.639 42.0176 246.678 41.2094 246.678 40.1114V37.9331C246.678 36.4563 246.468 35.3956 246.051 34.7513C245.636 34.1078 244.959 33.786 244.025 33.786C243.406 33.786 242.941 33.9627 242.625 34.316C242.322 34.6568 242.169 35.1685 242.169 35.8499C242.169 37.8699 242.188 39.4736 242.227 40.6602C242.278 41.8344 242.347 42.6677 242.435 43.1602C242.485 43.3742 242.725 43.7657 243.154 44.3345C243.584 44.8901 243.798 45.395 243.798 45.8493C243.798 46.7458 243.28 47.3958 242.245 47.7997C241.211 48.2035 239.557 48.4058 237.284 48.4058C235.227 48.4058 233.573 48.1595 232.322 47.667C231.084 47.1619 230.466 46.5052 230.466 45.6977C230.466 45.0534 230.821 44.4919 231.527 44.0119C231.818 43.8104 232.02 43.6462 232.134 43.5202C232.423 43.1411 232.632 42.4786 232.758 41.5316C232.885 40.5847 232.948 38.8865 232.948 36.4371V33.2935C232.948 30.8822 232.89 29.14 232.777 28.0661C232.663 26.9939 232.473 26.3563 232.209 26.154C232.07 26.0404 231.843 25.8953 231.527 25.7186C230.732 25.2766 230.334 24.6579 230.334 23.8629C230.334 23.3952 230.48 23.0104 230.771 22.707C231.059 22.3917 231.653 22.0252 232.549 21.609C233.788 21.0409 235.137 20.5989 236.602 20.2831C238.079 19.9548 239.493 19.7906 240.845 19.7906C241.4 19.7906 241.779 19.9173 241.981 20.1695C242.183 20.4224 242.283 21.0469 242.283 22.0443V22.2715L242.283 22.2716Z" fill="#333333"/>
<path fill-rule="evenodd" clip-rule="evenodd" d="M14.9452 45.0455C14.9739 49.9407 15.4923 57.983 20.9768 57.983C23.2814 57.983 25.6437 56.8913 27.5086 55.6539C28.3837 55.0732 29.2196 54.5028 29.8657 53.7595C30.228 53.3425 30.4133 52.9036 31.0403 52.7468C31.5756 52.613 32.1995 52.5837 32.6801 52.9516C35.5609 55.1561 29.9647 58.763 28.2019 59.6472L25.2729 61.1122L25.2841 61.1175C23.6646 61.5878 21.9769 61.9401 20.1193 62.0042C20.2605 62.0455 20.4024 62.1271 20.568 62.2844L21.5559 63.1199C22.2143 63.6443 23.1651 64.3051 23.8754 64.6248C24.3433 64.8355 24.6457 65.0469 25.1561 65.2429C26.8143 65.8796 28.0342 66.0606 29.9247 66.1688C30.5428 66.2041 31.1996 66.179 31.8212 66.1741C32.5279 66.1688 32.8597 66.0881 33.4647 66.0508C37.6692 65.7916 42.2039 64.5744 45.3254 62.7144C46.0998 62.253 46.8912 61.7419 47.5675 61.138C49.406 59.4966 50.5665 57.7959 51.3561 55.4037C51.8608 53.8751 51.9468 53.9252 52.4129 52.7198C52.618 52.1893 52.8216 51.8482 53.0224 51.4168C54.5502 48.1329 56.6095 44.3647 57.9128 41.1135C58.2628 40.2407 58.7244 39.2401 59.0026 38.4018C60.3313 34.3996 61.1638 29.4916 59.866 25.411C59.0916 22.9767 57.8285 19.756 55.7159 18.1999C50.9174 14.6652 45.8963 17.3149 43.4637 15.271C41.9195 13.9735 40.1621 12.7153 38.4292 11.7126C38.236 11.6007 38.0335 11.4415 37.854 11.3436C37.499 11.1498 36.8966 10.9215 36.6523 10.6903C36.7243 9.93589 37.5542 8.61862 37.948 8.05292C38.2305 7.6475 38.4644 7.32425 38.7757 6.97451C40.3262 5.23284 43.0722 3.99859 45.2626 3.86284C47.9312 3.69764 50.0027 3.90386 52.2716 4.54839C55.0755 5.34495 56.0048 1.91421 53.7167 1.02539C52.143 0.413867 48.9943 -0.0062132 47.003 6.95292e-05C41.6197 0.0168235 37.071 2.06117 34.3566 6.62502C33.5171 8.03629 33.4854 8.55801 33.1224 9.20463C25.3041 10.2403 20.9142 13.7219 18.5389 21.5252C18.3476 22.1539 18.1027 22.6408 17.9355 23.3532C17.7788 24.0204 17.544 24.6307 17.3949 25.2267C16.0825 30.4676 14.9154 39.9654 14.9451 45.0451L14.9452 45.0455ZM16.4892 60.2193C14.208 58.2885 12.7838 56.1127 12.1219 53.7191C11.148 49.6771 11.1633 46.9654 11.2117 42.79C11.268 37.94 12.1179 33.2959 12.858 28.5633C14.2942 19.3822 18.3622 8.80981 28.8433 7.19219C28.0686 6.53398 28.7814 7.15856 28.0888 6.6143C25.2874 4.41264 20.494 2.40537 16.8717 2.9309C15.6644 3.10595 14.9434 3.25957 13.8013 3.68249C10.5166 4.89912 7.71355 8.18732 6.12254 11.1899C4.01598 15.1656 3.19319 18.0214 2.08152 22.3514C1.86569 23.1922 1.51841 24.4861 1.38105 25.3629C1.0339 27.5795 0.612467 29.7744 0.344896 31.9487C0.197067 33.15 0.214314 34.366 0.0892756 35.5298C-0.186179 38.093 0.207415 43.3084 0.83655 45.9555C1.43168 48.4594 2.77225 51.8423 4.27086 53.86C8.11811 59.04 12.4741 61.1933 18.9961 61.9527L19.0317 61.9566C18.1807 61.4248 17.3235 60.843 16.4889 60.2194L16.489 60.2195L16.4892 60.2193ZM7.52593 51.9041C7.79178 52.2892 8.22898 52.8193 8.7741 53.4273C8.30684 52.9365 7.88392 52.4228 7.52593 51.9041Z" fill="#FF4300"/>
</svg>
